<?xml version="1.0" encoding="utf-8"?>
<!-- Generator: Adobe Illustrator 27.5.0, SVG Export Plug-In . SVG Version: 6.00 Build 0)  -->
<svg version="1.1" xmlns="http://www.w3.org/2000/svg" xmlns:xlink="http://www.w3.org/1999/xlink" x="0px" y="0px"
	 viewBox="0 0 500 500" style="enable-background:new 0 0 500 500;" xml:space="preserve">
<g id="BACKGROUND">
	<rect style="fill:#F1F1F2;" width="500" height="500"/>
</g>
<g id="OBJECTS">
	<g>
		<g>
			<g>
				<g>
					<path style="fill-rule:evenodd;clip-rule:evenodd;fill:#92BDC6;" d="M113.25,127.046c3.759,0.998,7.317,2.487,10.602,4.396
						l9.002-5.677l12.449,12.449l-5.676,9.001c1.909,3.285,3.398,6.844,4.396,10.603l10.374,2.35l0,17.606l-10.373,2.35
						c-0.998,3.76-2.488,7.318-4.397,10.603l5.676,9.001l-12.449,12.449l-9.002-5.676c-3.285,1.908-6.843,3.398-10.602,4.395
						l-2.351,10.375l-17.605,0l-2.35-10.373c-3.759-0.998-7.318-2.488-10.603-4.397l-9.002,5.676L58.89,199.728l5.677-9.002
						c-1.908-3.285-3.398-6.843-4.395-10.602l-10.375-2.351l0-17.606l10.374-2.35c0.998-3.759,2.488-7.318,4.397-10.603
						l-5.676-9.001l12.449-12.449l9.002,5.676c3.285-1.908,6.843-3.397,10.602-4.395l2.351-10.375h17.606L113.25,127.046
						L113.25,127.046z M102.897,150.084c-10.431,0-18.886,8.456-18.886,18.887c0,10.431,8.456,18.887,18.886,18.887
						c10.431,0,18.887-8.456,18.887-18.887C121.783,158.54,113.327,150.084,102.897,150.084z"/>
					<path style="fill-rule:evenodd;clip-rule:evenodd;fill:#92BDC6;" d="M373.291,184.979c2.586-0.233,5.16-0.11,7.657,0.337
						l4.352-5.618l10.655,4.968l-1.506,6.945c1.948,1.626,3.695,3.518,5.18,5.649l7.046-0.895l4.021,11.047l-5.972,3.844
						c0.232,2.587,0.11,5.16-0.337,7.658l5.617,4.352l-4.969,10.655l-6.945-1.506c-1.625,1.948-3.518,3.695-5.649,5.179l0.895,7.047
						l-11.047,4.021l-3.844-5.972c-2.587,0.232-5.16,0.11-7.658-0.338l-4.352,5.618l-10.655-4.968l1.506-6.945
						c-1.947-1.625-3.695-3.518-5.179-5.649l-7.047,0.895l-4.021-11.048l5.973-3.844c-0.232-2.587-0.11-5.16,0.337-7.657
						l-5.617-4.352l4.969-10.655l6.945,1.506c1.625-1.948,3.518-3.695,5.649-5.179l-0.895-7.047l11.047-4.021L373.291,184.979
						L373.291,184.979z M372.056,201.8c-6.545,2.382-9.92,9.619-7.538,16.165c2.382,6.545,9.62,9.92,16.165,7.538
						c6.546-2.382,9.92-9.619,7.538-16.165C385.839,202.792,378.601,199.417,372.056,201.8z"/>
					<path style="fill-rule:evenodd;clip-rule:evenodd;fill:#92BDC6;" d="M407.094,130.324c1.46-0.131,2.913-0.062,4.323,0.19
						l2.457-3.172l6.015,2.805l-0.85,3.92c1.1,0.918,2.086,1.986,2.924,3.189l3.978-0.505l2.27,6.237l-3.372,2.17
						c0.131,1.46,0.062,2.913-0.19,4.323l3.171,2.457l-2.805,6.015l-3.921-0.85c-0.918,1.1-1.986,2.086-3.189,2.924l0.505,3.978
						l-6.237,2.27l-2.17-3.372c-1.46,0.131-2.913,0.062-4.323-0.19l-2.457,3.172l-6.015-2.805l0.85-3.921
						c-1.099-0.918-2.086-1.986-2.924-3.189l-3.978,0.505l-2.27-6.237l3.372-2.17c-0.131-1.46-0.062-2.913,0.19-4.323l-3.171-2.457
						l2.805-6.015l3.921,0.85c0.918-1.099,1.986-2.086,3.189-2.924l-0.505-3.978l6.237-2.27L407.094,130.324L407.094,130.324z
						 M406.397,139.82c-3.695,1.345-5.6,5.43-4.255,9.126c1.345,3.695,5.43,5.6,9.126,4.255c3.695-1.345,5.601-5.43,4.256-9.126
						C414.177,140.381,410.092,138.475,406.397,139.82z"/>
					<path style="fill-rule:evenodd;clip-rule:evenodd;fill:#92BDC6;" d="M87.243,74.771c1.145-0.103,2.284-0.049,3.39,0.149
						l1.927-2.487l4.717,2.2l-0.667,3.074c0.862,0.72,1.636,1.558,2.293,2.501l3.119-0.396l1.78,4.89l-2.644,1.702
						c0.103,1.145,0.049,2.284-0.149,3.39l2.486,1.927l-2.199,4.717l-3.074-0.667c-0.72,0.862-1.558,1.636-2.501,2.293l0.396,3.12
						l-4.89,1.78l-1.702-2.644c-1.145,0.103-2.284,0.049-3.39-0.149l-1.926,2.487l-4.717-2.2l0.667-3.074
						c-0.862-0.719-1.636-1.558-2.293-2.501l-3.12,0.396l-1.78-4.89l2.644-1.702c-0.103-1.145-0.049-2.284,0.149-3.39l-2.487-1.927
						l2.2-4.717l3.074,0.666c0.72-0.862,1.558-1.635,2.501-2.293l-0.396-3.12l4.891-1.78L87.243,74.771L87.243,74.771z
						 M86.697,82.217c-2.897,1.054-4.391,4.258-3.337,7.156c1.055,2.897,4.258,4.392,7.156,3.337
						c2.897-1.055,4.391-4.259,3.337-7.156C92.798,82.656,89.594,81.162,86.697,82.217z"/>
				</g>
				<g>
					<g>
						<path style="fill:#4B97A9;" d="M452.812,391.465c4.298-1.431,8.359-4.109,10.511-8.095c1.675-3.102,2.071-6.713,2.399-10.223
							c1.534-16.401,2.273-32.877,2.212-49.35c-0.017-4.628-0.365-9.857-3.889-12.857c-2.292-1.951-5.442-2.487-8.436-2.806
							c-5.555-0.593-11.161-0.699-16.735-0.318c-3.59,0.246-7.379,0.78-10.173,3.049c-3.079,2.499-4.316,6.572-5.304,10.412
							c-2.786,10.826-4.857,21.834-6.227,32.929c-0.536-0.116-1.086-0.186-1.602-0.226c-2.583-0.201-5.192-0.4-7.755-0.026
							s-5.115,1.378-6.897,3.259c-3.565,3.764-3.111,9.646-4.318,14.689c-0.319,1.333-0.771,2.663-0.735,4.033
							c0.014,0.54,0.13,1.094,0.339,1.599c-3.564,2.371-6.029,6.517-4.965,10.578c0.923,3.522,4.227,6.017,7.73,7.009
							c3.503,0.993,7.221,0.747,10.853,0.492c5.265-0.369,10.53-0.738,15.795-1.107c0.178,5.729,0.357,11.457,0.535,17.186
							c-7.761-0.097-15.534,0.787-23.07,2.644c-1.898,0.468-3.912,1.079-5.131,2.608c-1.219,1.529-1.082,4.248,0.716,5.018
							c0.64,0.274,1.362,0.259,2.058,0.24c0.004,0,0.008,0,0.013,0c-0.589,0.829-0.939,1.84-0.939,2.935
							c0,2.803,2.272,5.075,5.075,5.075s5.075-2.272,5.075-5.075c0-1.197-0.417-2.296-1.11-3.164
							c6.653-0.188,13.306-0.376,19.96-0.564c-0.393,2.82-0.776,5.766,0.162,8.454c0.341,0.978,0.919,1.903,1.648,2.661
							c-0.235,0.506-0.369,1.066-0.369,1.658v3.188c0,2.184,1.787,3.971,3.971,3.971c2.184,0,3.971-1.787,3.971-3.971v-3.188
							c0-0.451-0.08-0.884-0.22-1.288c0.981-0.999,1.643-2.377,1.882-3.77c0.41-2.39-0.156-4.828-0.719-7.187
							c5.549,0.122,11.104-0.042,16.637-0.485c-0.978,0.925-1.592,2.232-1.592,3.685c0,2.803,2.272,5.075,5.075,5.075
							c2.803,0,5.076-2.272,5.076-5.075c0-1.836-0.978-3.438-2.437-4.33c1.166-0.228,2.281-0.652,2.92-1.612
							c0.962-1.445,0.318-3.517-0.979-4.671c-1.296-1.155-3.059-1.605-4.758-1.963c-7.77-1.633-15.784-2.08-23.691-1.349
							c0.51-0.494,0.934-1.071,1.222-1.725c0.631-1.433,0.6-3.058,0.559-4.624c-0.099-3.714-0.199-7.429-0.298-11.143
							c0.855-0.06,1.71-0.12,2.564-0.18C443.94,393.223,448.514,392.896,452.812,391.465z M416.529,359.87
							c-0.02,0.202-0.036,0.404-0.056,0.606l-0.496-0.641C416.159,359.857,416.344,359.867,416.529,359.87z M415.402,371.149
							c-0.354,1.598-0.708,3.196-1.062,4.794c-3.929-0.595-8.004-1.173-11.892-0.631c0.221-1.865-0.211-3.782-0.128-5.674
							c0.144-3.292,1.978-6.466,4.758-8.235c2.754-1.753,6.362-2.075,9.388-0.852c-0.368,3.729-0.669,7.465-0.875,11.206
							L415.402,371.149z"/>
						<path style="fill:#55A9C0;" d="M467.763,369.132h-15.271l1.807-12.169h1.175v-3.387h-5.931
							c4.453-1.914,8.159-5.363,10.078-9.578c-2.36,0.279-5.131,2.014-7.633,4.024c2.656-3.064,5.07-6.31,7.192-9.717
							c-3.994-0.044-7.624,2.416-9.833,5.529c0.618-4.727,0.024-9.593-1.862-14.021c-3.107,4.563-3.307,13.329-3.013,19.328
							c-1.259-5.712-4.384-11.074-8.941-15.076c0.047,5.975,5.74,15.502,8.315,19.51h-0.038c-3.237-4.788-7.767-8.813-13.08-11.553
							c0.866,2.909,2.884,5.428,5.281,7.459c1.45,1.228,4.305,2.935,6.338,4.094h-7.472v3.387h1.176l1.807,12.169h-37.392
							c0.818,0,1.015-0.015,1.015-0.354c0-0.339-0.135-0.578-0.135-0.578s-0.939-0.99-2.121-2.062
							c-1.18-1.073-1.014-1.862-1.014-1.862l-0.267-3.587h20.972c1.487,0,2.69-0.98,2.69-2.188v-37.187
							c0-1.208-1.204-2.187-2.69-2.187h-56.946c-1.487,0-2.691,0.979-2.691,2.187v37.187c0,1.208,1.205,2.188,2.691,2.188h20.972
							l-0.266,3.587c0,0,0.166,0.789-1.015,1.862c-1.182,1.073-2.12,2.062-2.12,2.062s-0.136,0.239-0.136,0.578
							c0,0.339,0.196,0.354,1.013,0.354h-27.41V323.28h-14.168v-2.719h-14.168v2.719h-14.168v-4.153h-14.168v50.005h-11.361
							c-2.091,0-3.801,1.595-3.801,3.544c0,1.949,1.711,3.544,3.801,3.544h6.79v65.172h9.14V376.22h150.323v65.172h9.14V376.22
							h7.393c2.091,0,3.801-1.595,3.801-3.544C471.564,370.727,469.854,369.132,467.763,369.132z"/>
					</g>
					<g>
						<g>
							<g>
								<path style="fill:#528B74;" d="M111.569,293.791c-3.999-0.194-8.096,0.493-11.696,2.849c-3.6,2.356-6.66,6.53-7.776,11.712
									c-1.146,5.324-0.27,11.478-2.48,16.153c-1.72,3.64-4.917,5.472-7.101,8.628c-3.995,5.773-3.895,14.725-2.817,22.487
									c1.078,7.762,2.885,15.734,1.465,23.395c-0.426,2.297-1.129,4.471-1.82,6.652c-1.302,8.138-2.451,16.709-0.873,24.754
									c0.452,1.642,1.062,3.037,1.88,3.967c4.977,5.659,5.697-7.213,6.066-11.008c0.595-6.121,3.477-11.355,4.986-17.184
									c1.305-5.038,1.561-10.561,0.733-15.78c-0.725-4.568-2.249-8.839-3.103-13.366c-0.854-4.527-0.952-9.658,0.984-13.531
									c2.458-4.915,7.593-6.68,9.605-11.951c1.364-3.573,0.935-7.837,0.89-11.855
									C100.394,309.067,104.131,297.363,111.569,293.791z"/>
								
									<path style="fill:none;stroke:#69A37B;stroke-width:0.9637;stroke-linecap:round;stroke-linejoin:round;stroke-miterlimit:10;" d="
									M103.952,297.63c-3.216,3.09-6.551,6.367-8.007,10.723c-1.438,4.302-0.838,9.039-1.25,13.587
									c-0.436,4.813-2.049,9.499-4.633,13.464c-2.042,3.133-4.712,5.891-5.945,9.476c-3.685,10.712,6.964,22.674,3.207,33.357
									c-0.788,2.242-2.159,4.184-3.317,6.233c-2.403,4.254-4.235,10.852-3.12,16.442"/>
							</g>
							<g>
								<path style="fill:#528B74;" d="M78.411,383.042c0.38-6.061,0.267-11.993-1.745-18.209
									c-1.145-3.539-2.764-6.788-3.757-10.411c-5.119-18.689,7.652-40.145,2.212-58.669c-1.269-4.321-3.447-8.045-4.934-12.237
									c-2.912-8.21-2.962-18.17-0.132-26.432c1.053-3.074,2.48-5.923,3.287-9.129c2.321-9.218-1.661-20.448-8.438-23.8
									c1.878,4.868,3.007,10.394,2.582,15.852c-0.982,12.602-9.919,23.217-8.406,35.724c0.932,7.705,5.697,13.68,7.06,21.267
									c2.825,15.724-9.669,31.083-6.708,46.761c1.373,7.269,5.85,12.802,7.656,19.896c3.866,15.184-5.801,32.507,0.293,46.974
									c1.854,4.402,7.641,8.765,9.914,2.699c0.104-0.278,0.176-0.572,0.244-0.867C75.178,402.953,76.854,392.651,78.411,383.042z"
									/>
								
									<path style="fill:none;stroke:#69A37B;stroke-width:0.9637;stroke-linecap:round;stroke-linejoin:round;stroke-miterlimit:10;" d="
									M69.875,237.844c3.245,12.736-7.973,25.446-6.035,38.483c0.492,3.307,1.813,6.393,2.916,9.527
									c3.606,10.238,4.954,21.38,3.901,32.265c-0.763,7.889-2.764,15.668-2.622,23.598c0.189,10.581,4.184,20.758,4.445,31.337
									c0.292,11.824-4.09,23.674-1.955,35.279"/>
							</g>
							<g>
								<path style="fill:#528B74;" d="M62.3,387.221c-1.759-5.93-4.81-11.244-5.567-17.549c-1.133-9.444,3.131-19.072,1.603-28.414
									c-1.547-9.457-8.669-16.176-9.471-25.8c-0.497-5.957,1.536-12.343-0.31-17.796c-1.86-5.492-6.869-7.562-11.339-7.893
									c3.571,4.266,5.626,10.745,5.45,17.174c-0.216,7.865-3.557,15.44-2.586,23.2c1.115,8.909,7.664,15.598,7.893,24.628
									c0.106,4.195-1.2,8.182-2.078,12.21c-0.878,4.027-1.272,8.677,0.457,12.168c1.452,2.932,4.117,4.433,5.615,7.323
									c2.042,3.938,1.409,9.224,1.622,14.022c0.217,4.894,4.079,22.862,9.424,14.301C66.716,408.863,64.203,393.638,62.3,387.221z
									"/>
								
									<path style="fill:none;stroke:#69A37B;stroke-width:0.9637;stroke-linecap:round;stroke-linejoin:round;stroke-miterlimit:10;" d="
									M43.498,296.463c1.872,4.668,3.403,9.673,3.021,14.737c-0.361,4.776-2.412,9.402-1.94,14.167
									c0.403,4.069,2.586,7.637,4.421,11.226c3.584,7.006,6.057,15.035,4.952,22.936c-0.555,3.968-1.998,7.81-1.984,11.823
									c0.023,6.45,3.749,12.144,5.405,18.346c1.708,6.397,1.176,13.203,0.63,19.831"/>
							</g>
							<g>
								<path style="fill:#80C578;" d="M85.873,394.658c0.823-7.612-0.055-15.382-1.408-22.855
									c-1.236-6.824-2.882-13.84-1.888-20.736c0.805-5.586,3.275-10.486,4.43-15.959c3.518-16.671-5.669-33.945-4.144-51.156
									c0.878-9.911,5.552-19.07,12.103-23.715c-4.307-1.467-8.64,1.889-12.293,5.298c-3.209,2.995-6.431,6.279-8.359,10.853
									c-2.093,4.965-2.43,10.883-2.72,16.582c-0.245,4.812-0.48,9.748,0.545,14.37c1.049,4.727,3.371,8.882,4.001,13.743
									c1.524,11.749-7.151,22.205-6.643,34.113c0.3,7.047,3.782,13.136,4.842,20.048c0.923,6.016-0.065,12.084-0.828,18.02
									c-0.567,4.403-2.277,12.295,0.119,16.163C79.732,419.28,85.284,400.111,85.873,394.658z"/>
								
									<path style="fill:none;stroke:#528B74;stroke-width:0.9637;stroke-linecap:round;stroke-linejoin:round;stroke-miterlimit:10;" d="
									M83.192,269.811c-5.466,8.774-7.813,19.721-6.467,30.171c1.094,8.498,4.522,16.641,4.503,25.22
									c-0.022,9.601-4.373,18.762-4.24,28.362c0.083,5.963,1.894,11.72,2.995,17.566c2.399,12.745,1.368,26.21-2.938,38.366"/>
							</g>
							<g>
								<path style="fill:#80C578;" d="M69.157,383.469c-0.721-2.731-1.827-5.249-2.606-7.951
									c-4.443-15.427,2.415-33.832-2.453-49.024c-1.091-3.405-2.735-6.477-3.61-9.994c-3.51-14.107,6.261-28.815,4.563-43.518
									c-0.774-6.703-3.867-12.534-5.037-19.132c-0.857-4.832-0.649-9.888-0.227-14.824c-5.306,11.923-7.742,26.128-6.857,39.982
									c0.396,6.189,1.428,12.483,0.385,18.534c-0.56,3.25-1.696,6.256-2.603,9.36c-2.221,7.594-3.055,16.248-0.975,23.913
									c1.098,4.047,2.95,7.64,4.264,11.568c1.678,5.017,2.458,10.576,2.254,16.073c-0.291,7.853-2.496,16.113-0.107,23.286
									c0.785,2.357,2.022,4.394,2.852,6.723c1.526,4.279,1.578,9.224,1.391,13.965c-0.091,2.314-0.229,4.68,0.237,6.91
									c0.586,2.809,2.533,5.639,4.875,4.637c2.188-0.936,1.974-3.364,2.459-5.846C69.556,399.982,71.353,391.792,69.157,383.469z"
									/>
								
									<path style="fill:none;stroke:#528B74;stroke-width:0.9637;stroke-linecap:round;stroke-linejoin:round;stroke-miterlimit:10;" d="
									M57.776,257.859c-0.161,11.952,1.782,17.758,1.134,28.631c-0.974,16.338-5.194,27.47-4.098,35.796
									c0.438,3.331,1.443,6.541,2.384,9.751c3.169,10.808,5.687,22.159,4.319,33.392c-0.399,3.275-1.126,6.521-1.135,9.823
									c-0.015,5.253,1.775,10.287,3.1,15.344c1.325,5.058,2.173,10.592,0.337,15.464"/>
							</g>
						</g>
						<g>
							<rect x="45.317" y="400.912" style="fill:#5195C1;" width="51.86" height="8.599"/>
							<polygon style="fill:#38C1D4;" points="89.669,409.511 52.824,409.511 48.276,409.511 52.824,440.411 89.669,440.411 
								94.217,409.511 							"/>
						</g>
					</g>
				</g>
			</g>
			<g>
				<g>
					<g>
						<g>
							<path style="fill:#C8E5F0;" d="M368.59,294.815H131.729c-6.361,0-11.565-5.204-11.565-11.565v-95.402
								c0-6.361,5.204-11.565,11.565-11.565H368.59c6.361,0,11.565,5.204,11.565,11.565v95.402
								C380.155,289.611,374.951,294.815,368.59,294.815z"/>
							<g>
								<g>
									<rect x="216.025" y="234.375" style="fill:#92BDC6;" width="147.809" height="4.384"/>
									<rect x="216.025" y="243.298" style="fill:#92BDC6;" width="147.809" height="4.384"/>
									<rect x="216.025" y="252.221" style="fill:#92BDC6;" width="147.809" height="4.384"/>
									<rect x="216.025" y="261.145" style="fill:#92BDC6;" width="147.809" height="4.384"/>
									<rect x="216.025" y="270.068" style="fill:#92BDC6;" width="147.809" height="4.384"/>
									<rect x="216.025" y="278.991" style="fill:#92BDC6;" width="147.809" height="4.384"/>
								</g>
								<rect x="136.484" y="261.001" style="fill:#92BDC6;" width="67.642" height="22.374"/>
								<rect x="216.025" y="187.723" style="fill:#92BDC6;" width="106.003" height="15.501"/>
								<rect x="216.025" y="207.921" style="fill:#92BDC6;" width="84.395" height="7.516"/>
								<rect x="216.025" y="220.134" style="fill:#92BDC6;" width="84.395" height="7.516"/>
								<circle style="fill:#92BDC6;" cx="170.305" cy="221.544" r="33.821"/>
							</g>
						</g>
						<g>
							<defs>
								<circle id="SVGID_1_" cx="170.305" cy="221.271" r="33.821"/>
							</defs>
							<clipPath id="SVGID_00000011742579697435087100000001691524099478043279_">
								<use xlink:href="#SVGID_1_"  style="overflow:visible;"/>
							</clipPath>
							<g style="clip-path:url(#SVGID_00000011742579697435087100000001691524099478043279_);">
								<path style="fill:#3E3647;" d="M182.01,203.821c3.524,5.822,0.484,12.191,3.72,15.694c0.907,0.982-0.516,3.174-0.009,4.426
									c0.347,0.856,0.936,1.606,1.381,2.422c0.445,0.816,0.745,1.767,0.458,2.642c-1.978,0.092-3.936,0.526-5.745,1.273
									c-1.677,0.693-3.301,1.67-5.135,1.734c-2.228,0.078-4.342-1.223-6.561-1.019c-1.923,0.177-3.784,1.469-5.625,0.924
									c-1.028-0.305-1.763-1.119-2.534-1.82c-0.771-0.701-1.77-1.357-2.836-1.204c-0.941,0.135-1.66,0.865-2.57,1.124
									c-1.084,0.308-2.366-0.175-2.912-1.097c1.334-0.22,1.864-1.737,1.904-2.993c0.068-2.126-0.23-3.672,0.462-5.699
									c0.342-1.001,1.63-2.302,2.03-3.285c0.799-1.962-0.273-4.369-0.049-6.456c0.223-2.087,1.01-4.348,2.978-5.379"/>
								<g>
									<g>
										<path style="fill:#FCBF95;" d="M176.837,223.633c0,0-3.025,8.662-0.823,9.665c2.202,1.003,13.486-1.755,15.618,8.15
											c2.132,9.905,0,14.042,0,14.042s-39.281,2.386-44.651-3.9c-1.815-2.125,4.484-11.01,6.701-12.564
											c4.089-2.866,11.175-2.969,12.213-6.605c1.038-3.636,0.937-6.488,0.937-6.488L176.837,223.633z"/>
										<path style="fill:#EA9071;" d="M176.838,223.633l-10.006,2.3c0,0,0.07,2.063-0.545,4.914
											c1.523,0.191,3.097,0.092,4.596-0.251c1.592-0.364,3.108-0.975,4.566-1.714
											C175.899,226.325,176.838,223.633,176.838,223.633z"/>
									</g>
									<g>
										<path style="fill:#6581AA;" d="M181.054,233.685c-0.919,0.424-1.803,0.932-2.639,1.494
											c-2.324,1.562-4.352,3.515-6.488,5.324c-1.538,1.303-3.291,2.593-5.306,2.631c-2.862,0.055-5.18-2.489-6.127-5.19
											c-0.185-0.528-0.324-1.083-0.413-1.645c-2.198,0.731-4.591,1.459-6.399,2.726c-2.217,1.554-8.516,10.439-6.701,12.564
											c5.37,6.287,44.651,3.9,44.651,3.9s2.132-4.137,0-14.042C190.266,235.098,185.139,233.954,181.054,233.685z"/>
										<path style="fill:#D3F2F4;" d="M183.654,234.002c-0.883-0.166-1.764-0.262-2.6-0.317
											c-0.919,0.424-1.803,0.932-2.639,1.494c-2.324,1.562-4.352,3.515-6.488,5.324c-1.538,1.303-3.291,2.593-5.306,2.631
											c-2.862,0.055-5.18-2.489-6.127-5.19c-0.185-0.528-0.324-1.083-0.413-1.645c-0.573,0.191-1.158,0.382-1.743,0.582
											c1.101,2.895,3.404,7.541,6.853,7.549c6.171,0.014,7.573-2.361,13.771-7.452
											C180.72,235.534,182.292,234.607,183.654,234.002z"/>
									</g>
								</g>
								<g>
									<path id="XMLID_11_" style="fill:#EA9071;" d="M156.889,217.24c0.063-1.165,0.152-3.148,1.5-3.617
										c0.773-0.269,1.528,0.153,1.597,0.85c0.513,0.423,0.86,1.156,0.996,1.76c0.165,0.729,0.118,1.494,0.045,2.23
										c-0.094,0.954-0.177,2.351-0.571,3.245c-0.433,0.983-1.503,0.637-2.215,0.088
										C156.878,220.744,156.803,218.816,156.889,217.24z"/>
									<g>
										<path id="XMLID_10_" style="fill:#FCBF95;" d="M181.528,216.999c-1.351,8.683-8.418,12.783-12.928,12.796
											c-3.555,0.01-9.137-4.287-9.483-9.311c-0.167-2.432-0.198-4.93-0.003-7.362c0.121-1.501,0.249-3.443,0.84-5.068
											c0.221-0.822,0.514-1.627,0.907-2.399c1.271-2.497,3.658-4.229,6.362-5.212c3.036-1.103,6.703-0.856,9.417,0.755
											c1.418,0.842,2.86,2.333,3.529,3.984c0.513,0.95,0.826,2.032,1.009,3.153c0.096,0.343,0.183,0.69,0.257,1.043
											c0.405,1.928,0.425,3.974,0.202,6.003C181.638,215.927,181.604,216.47,181.528,216.999z"/>
										<path style="fill:#EA9071;" d="M181.852,209.375c-0.075-0.353-0.164-0.7-0.261-1.043
											c-0.186-1.121-0.505-2.203-1.028-3.153c-0.681-1.651-2.149-3.142-3.594-3.983c-2.764-1.61-6.499-1.857-9.591-0.754
											c-2.755,0.983-5.186,2.715-6.481,5.213c-0.4,0.773-0.699,1.577-0.924,2.399c-0.602,1.624-0.733,3.567-0.856,5.068
											c-0.001,0.009-0.001,0.018-0.002,0.027c0.292-0.331,0.662-0.592,1.083-0.724c0.453-0.143,0.97-0.164,1.331-0.473
											c0.391-0.334,0.581-0.98,1.093-1.025c0.314-0.028,0.588,0.202,0.894,0.275c0.445,0.105,0.894-0.131,1.273-0.387
											c1.578-1.068,2.801-2.651,3.436-4.447c-0.099,1.402-0.144,2.913,0.619,4.093c0.81,1.252,2.348,1.829,3.822,2.054
											c0.422,0.064,0.855,0.108,1.242,0.287c0.45,0.208,0.801,0.58,1.22,0.844c0.903,0.569,2.031,0.593,3.098,0.646
											c0.274,0.014,0.561,0.034,0.795,0.177c0.161,0.099,0.285,0.248,0.398,0.4c0.419,0.56,0.749,1.186,0.973,1.849l1.683-1.552
											C182.276,213.204,182.249,211.235,181.852,209.375z"/>
									</g>
									<g>
										<path style="fill:#8C282F;" d="M170.49,214.12c-0.089,0.043-0.024,0.173,0.064,0.153c1.765-0.393,3.801-0.746,4.796,1.172
											c0.117,0.227,0.522,0.065,0.42-0.177C174.883,213.157,172.248,213.276,170.49,214.12z"/>
										<path style="fill:#8C282F;" d="M165.043,214.084c-1.331-1.183-3.009-2.059-4.767-1.257
											c-0.114,0.052-0.033,0.249,0.086,0.204c1.653-0.623,3.178,0.253,4.369,1.364
											C164.939,214.59,165.255,214.272,165.043,214.084z"/>
										<path style="fill:#8C282F;" d="M173.838,217.412c-0.956-0.201-1.919-0.116-2.831,0.223
											c-0.16,0.059-0.099,0.296,0.071,0.258c0.887-0.199,1.737-0.172,2.618,0.035
											C174.031,218.006,174.173,217.483,173.838,217.412z"/>
										<path style="fill:#8C282F;" d="M164.483,217.63c-0.634-0.654-1.829-1.281-2.764-1.119c-0.234,0.041-0.209,0.392,0,0.449
											c0.43,0.117,0.874,0.098,1.304,0.246c0.457,0.158,0.863,0.412,1.26,0.682C164.442,217.996,164.61,217.761,164.483,217.63z
											"/>
										<path style="fill:#8C282F;" d="M166.49,221.992c-1.636-0.233-0.826-2.139-0.635-2.919
											c0.131-0.538,0.189-1.023,0.071-1.567c-0.013-0.061-0.143-0.047-0.14,0.014c0.045,1.229-0.79,2.435-0.551,3.658
											c0.11,0.562,0.454,0.982,1.216,1.042C166.619,222.235,166.659,222.016,166.49,221.992z"/>
										<g>
											<path style="fill:#8C282F;" d="M172.371,222.71c-0.41-0.238-1.562,0.092-2.056,0.152
												c-1.125,0.138-2.243,0.288-3.351,0.506c-0.001,0,0,0.002-0.001,0.002c-0.062,0.007-0.12,0.009-0.185,0.018
												c-0.051,0.008-0.106,0.055-0.115,0.098c-0.535,2.635,3.511,3.164,5.199,1.479
												C172.273,224.554,173.151,223.163,172.371,222.71z"/>
											<path style="fill:#ED6B9A;" d="M166.832,224.794c0.803,1.447,3.675,1.525,5.03,0.171c0.236-0.235,0.617-0.792,0.759-1.31
												C170.617,223.531,168.579,223.947,166.832,224.794z"/>
										</g>
									</g>
									<path style="fill:#3E3647;" d="M170.603,210.026c0.465,0.666,1.155,1.344,2.005,1.283c0.483-0.035,0.979-0.309,1.422-0.128
										c0.205,0.084,0.356,0.253,0.478,0.428c0.421,0.6,0.669,1.385,1.367,1.688c0.75,0.325,1.804-0.03,2.356,0.545
										c0.293,0.305,0.307,0.754,0.439,1.145c0.229,0.68,0.82,1.191,1.251,1.78c0.585,0.8,0.881,1.781,0.828,2.749
										c0.645-1.443,1.778-2.683,2.263-4.18c0.274-0.847,0.328-1.74,0.38-2.623c0.145-2.459,0.28-4.994-0.6-7.317
										c-1.148-3.03-3.974-5.362-7.204-6.476c-0.985-0.34-2.078-0.576-3.074-0.267c-1.901,0.589-4.107,2.453-3.976,4.439
										C168.694,205.473,169.192,208.004,170.603,210.026z"/>
									<g>
										<path id="XMLID_5_" style="fill:#FCBF95;" d="M180.391,217.925c0.273-0.449,0.615-0.845,1.021-1.181
											c0.725-0.869,1.915-0.964,2.787-0.17c1.082,0.986,0.975,2.621,0.611,3.909c-0.377,1.332-1.133,3.095-2.522,3.64
											c-1.096,0.43-2.146-0.057-2.592-1.094C178.837,221.561,179.334,219.415,180.391,217.925z"/>
										<path id="XMLID_4_" style="fill:#EA9071;" d="M182.054,218.741c0.479-0.434,1.404-0.847,1.677,0.003
											c0.024,0.073-0.092,0.116-0.126,0.048c-0.552-1.104-1.888,0.831-2.074,1.205c-0.057,0.114-0.106,0.231-0.153,0.348
											c0.32-0.032,0.633,0.035,0.919,0.206c0.291,0.175,0.681,0.536,0.658,0.902c-0.007,0.117-0.152,0.173-0.235,0.088
											c-0.096-0.099-0.133-0.221-0.21-0.334c-0.102-0.148-0.241-0.277-0.392-0.373c-0.249-0.16-0.542-0.234-0.836-0.231
											c-0.161,0.467-0.271,0.95-0.41,1.426c-0.054,0.183-0.307,0.091-0.275-0.087
											C180.799,220.803,181.167,219.546,182.054,218.741z"/>
									</g>
									<g>
										<path style="fill:#3E3647;" d="M169.288,203.566c-1.334,2.157-2.966,4.128-4.837,5.84c-0.346,0.316-0.795,0.646-1.24,0.5
											c-0.197-0.064-0.359-0.216-0.562-0.262c-0.421-0.094-0.789,0.304-0.975,0.693c-0.186,0.389-0.323,0.845-0.691,1.069
											c-0.233,0.143-0.52,0.164-0.772,0.269c-0.612,0.257-0.949,0.94-1.075,1.592c-0.208,1.081-0.111,2.224-0.158,3.462
											c-0.931-2.704-1.62-5.582-1.321-8.426c0.299-2.844,1.529-5.658,3.716-7.501c1.583-1.333,3.697-2.603,5.765-2.658
											c2.068-0.055,3.773,0.374,5.424,1.621L169.288,203.566z"/>
										<path style="fill:#545360;" d="M164.333,199.876c1.615-0.921,3.458-1.428,5.316-1.495c-0.786-0.186-1.612-0.26-2.51-0.236
											c-2.068,0.055-4.182,1.325-5.765,2.658c-2.187,1.842-3.417,4.656-3.716,7.501c-0.135,1.287-0.061,2.581,0.139,3.863
											c0.208-1.278,0.443-2.551,0.738-3.812c0.217-0.929,0.458-1.856,0.812-2.743
											C160.302,203.213,162.091,201.155,164.333,199.876z"/>
									</g>
								</g>
							</g>
						</g>
					</g>
					<path style="fill:#8BC53F;" d="M368.193,187.899c-5-3.891-11.632,0.174-15.57,3.786c-3.411,3.128-5.671,7.22-6.317,11.653
						c-2.134-1.977-4.75-3.399-7.645-4.099c-1.44-0.348-2.34,0.983-2.174,2.096c-0.172,0.521-0.055,1.104,0.541,1.567
						c4.114,3.192,7.277,7.229,9.387,11.99c0.629,1.418,2.872,0.952,3.219-0.421c2.523-9.98,9.112-18.526,18.119-23.507
						c0.574-0.317,0.832-0.798,0.863-1.293C368.869,189.071,368.808,188.378,368.193,187.899z"/>
				</g>
				<g>
					<g>
						<g>
							<path style="fill:#C8E5F0;" d="M368.59,418.983H131.729c-6.361,0-11.565-5.204-11.565-11.565v-95.402
								c0-6.361,5.204-11.565,11.565-11.565H368.59c6.361,0,11.565,5.204,11.565,11.565v95.402
								C380.155,413.779,374.951,418.983,368.59,418.983z"/>
							<g>
								<g>
									<rect x="216.025" y="358.543" style="fill:#92BDC6;" width="147.809" height="4.384"/>
									<rect x="216.025" y="367.466" style="fill:#92BDC6;" width="147.809" height="4.384"/>
									<rect x="216.025" y="376.389" style="fill:#92BDC6;" width="147.809" height="4.384"/>
									<rect x="216.025" y="385.313" style="fill:#92BDC6;" width="147.809" height="4.384"/>
									<rect x="216.025" y="394.236" style="fill:#92BDC6;" width="147.809" height="4.384"/>
									<rect x="216.025" y="403.159" style="fill:#92BDC6;" width="147.809" height="4.384"/>
								</g>
								<rect x="136.484" y="385.169" style="fill:#92BDC6;" width="67.642" height="22.374"/>
								<rect x="216.025" y="311.891" style="fill:#92BDC6;" width="106.003" height="15.501"/>
								<rect x="216.025" y="332.09" style="fill:#92BDC6;" width="84.395" height="7.516"/>
								<rect x="216.025" y="344.303" style="fill:#92BDC6;" width="84.395" height="7.516"/>
								
									<ellipse transform="matrix(0.9205 -0.3907 0.3907 0.9205 -121.5331 94.0154)" style="fill:#92BDC6;" cx="170.305" cy="345.712" rx="33.821" ry="33.821"/>
							</g>
							<g>
								<defs>
									
										<ellipse id="SVGID_00000182505204404380290720000001353812567020338600_" transform="matrix(0.9205 -0.3907 0.3907 0.9205 -121.5331 94.0154)" cx="170.305" cy="345.712" rx="33.821" ry="33.821"/>
								</defs>
								<clipPath id="SVGID_00000076585686757852158920000001260890179173654960_">
									<use xlink:href="#SVGID_00000182505204404380290720000001353812567020338600_"  style="overflow:visible;"/>
								</clipPath>
							</g>
						</g>
						<g>
							<defs>
								<circle id="SVGID_00000147936799928424475370000001387628971549091239_" cx="170.305" cy="345.328" r="33.821"/>
							</defs>
							<clipPath id="SVGID_00000066489053549306004840000006365193821588212148_">
								<use xlink:href="#SVGID_00000147936799928424475370000001387628971549091239_"  style="overflow:visible;"/>
							</clipPath>
							<g style="clip-path:url(#SVGID_00000066489053549306004840000006365193821588212148_);">
								<g>
									<path style="fill:#FCD8AE;" d="M164.084,349.403c0.35,0.246,1.629,6.561,0.812,8.429
										c-0.817,1.868-13.46,2.443-15.291,7.581c-1.831,5.138-1.285,8.874-1.285,8.874s27.791,17.515,47.875-3.27
										c0,0,1.401-15.88-7.707-15.53c-9.108,0.35-11.213,0.81-11.833-0.125c-0.62-0.934-1.735-4.728-1.735-4.728L164.084,349.403z
										"/>
									<path style="fill:#E8AB89;" d="M174.921,350.636l-10.837-1.233c0.235,0.165,0.886,3.063,1.043,5.517
										c1.628,0.614,3.381,0.922,5.122,0.912c2.069-0.012,4.113-0.441,6.061-1.151
										C175.693,353.261,174.921,350.636,174.921,350.636z"/>
									<g>
										<path style="fill:#D85565;" d="M196.195,371.018c0,0,1.401-15.88-7.707-15.53c-7.027,0.27-9.878,0.603-11.102,0.313
											c-0.401,3.574-2.967,9.494-2.967,9.494c-1.508,0-6.778-5.301-9.673-7.254c-1.624,1.71-13.38,2.431-15.141,7.372
											c-1.831,5.138-1.285,8.874-1.285,8.874S176.111,391.803,196.195,371.018z"/>
										
											<path style="fill:none;stroke:#B74162;stroke-width:0.4819;stroke-linecap:round;stroke-linejoin:round;stroke-miterlimit:10;" d="
											M174.419,365.295c0,0,1.007,1.701,1.437,3.244c0.964,3.457,2.099,10.017,2.071,11.829"/>
										<path style="fill:#EA8189;" d="M174.419,365.295c0,0-8.459-0.589-9.624,1.923c0,0-5.028-8.508-0.328-9.94
											C164.467,357.278,172.214,361.656,174.419,365.295z"/>
										<path style="fill:#EA8189;" d="M174.419,365.295c-0.829-0.519,3.049-7.05,2.077-10.213
											c-0.317-1.033,4.318-1.704,7.155,7.356C183.652,362.438,179.175,360.245,174.419,365.295z"/>
										<g>
											<circle style="fill:#8E2B5A;" cx="173.637" cy="368.733" r="0.757"/>
											<circle style="fill:#8E2B5A;" cx="175.176" cy="376.281" r="0.757"/>
										</g>
									</g>
								</g>
								<g>
									<path id="XMLID_8_" style="fill:#E8AB89;" d="M182.226,341.414c-0.193-1.043-0.503-2.82-1.773-3.087
										c-0.729-0.153-1.36,0.315-1.341,0.952c-0.413,0.441-0.641,1.142-0.693,1.702c-0.064,0.676,0.067,1.361,0.218,2.016
										c0.196,0.849,0.433,2.099,0.893,2.859c0.505,0.836,1.429,0.399,2.007-0.179
										C182.644,344.571,182.487,342.824,182.226,341.414z"/>
									<path style="fill:#E5B12E;" d="M178.402,329.621c0.19,0.063,2.073,8.266,1.772,10.786l-5.611-9.62L178.402,329.621z"/>
									<g>
										<path id="XMLID_7_" style="fill:#FCD8AE;" d="M159.984,344.061c2.228,7.671,9.039,10.267,14.053,9.346
											c3.178-0.584,6.539-4.232,6.558-8.81c0.014-3.52-2.193-12.938-3.21-13.798c-1.945-1.645-3.877-2.756-6.43-3.327
											c-2.865-0.641-6.143,0.008-8.402,1.776c-1.181,0.924-2.307,2.436-2.719,4.002c-0.352,0.916-0.508,1.928-0.543,2.96
											c-0.046,0.321-0.085,0.644-0.11,0.97c-0.141,1.786,0.079,3.632,0.516,5.436
											C159.761,343.108,159.854,343.594,159.984,344.061z"/>
										<path style="fill:#E8AB89;" d="M160.993,346.638L160.993,346.638l0.163,0.205c-0.491-1.789-0.319-3.753,0.477-5.43
											c0.563-1.187,1.447-2.313,1.429-3.627c-0.004-0.288-0.044-0.604,0.125-0.837c0.092-0.126,0.232-0.206,0.37-0.281
											c4.038-2.204,8.636-3.176,13.207-3.686c0.294-0.033,0.979-0.071,1.574-0.095c-0.357-1.091-0.694-1.87-0.953-2.089
											c-1.945-1.645-3.877-2.756-6.43-3.327c-2.865-0.641-6.143,0.008-8.402,1.776c-1.181,0.924-2.307,2.436-2.719,4.002
											c-0.352,0.916-0.508,1.928-0.543,2.96c-0.046,0.321-0.085,0.644-0.11,0.97c-0.141,1.785,0.079,3.632,0.516,5.436
											c0.064,0.492,0.157,0.978,0.287,1.445c0.136,0.468,0.29,0.915,0.458,1.346
											C160.611,345.836,160.796,346.246,160.993,346.638z"/>
									</g>
									<g>
										<path style="fill:#F2D33B;" d="M156.681,338.82c-0.792-1.324-2.742-5.323-2.399-6.3
											c0.296-0.842,8.153-9.607,12.753-10.712c0.152-0.037,0.32-0.069,0.461-0.003c0.305,0.144,0.228,0.597,0.018,0.854
											c-0.21,0.257-0.516,0.478-0.559,0.802c0.833,0.354,1.79,0.06,2.666-0.18c2.273-0.626,4.658-0.871,7.017-0.723
											c0.693,0.044,1.512,0.208,1.776,0.828c0.063,0.147,0.084,0.32,0.011,0.462c-0.094,0.184-0.314,0.267-0.515,0.335
											c-0.585,0.197-1.17,0.395-1.754,0.592c1.379,0.224,2.722,0.658,3.963,1.28c0.428,0.215,0.893,0.52,0.94,0.984
											c0.05,0.494-0.414,0.903-0.89,1.091c-0.477,0.188-1.009,0.25-1.446,0.513c1.057,0.355,2.325,0.999,2.244,2.076
											c-6.473,1.449-12.876,3.189-19.182,5.213c-0.176,1.017,0.194,2.057,0.095,3.084c-0.066,0.683-0.285,2.078-0.475,2.739
											c-0.589,2.049,0.272,4.641-0.007,6.656c-0.769-0.786-1.607-3.593-2.176-4.544
											C158.193,342.147,157.71,340.54,156.681,338.82z"/>
										<path style="fill:#F7E861;" d="M180.119,326.055c-1.241-0.622-2.584-1.056-3.963-1.28
											c0.585-0.197,1.169-0.395,1.754-0.592c0.201-0.068,0.42-0.151,0.515-0.335c0.073-0.142,0.052-0.315-0.011-0.462
											c-0.264-0.62-1.082-0.785-1.776-0.828c-2.359-0.149-4.744,0.097-7.017,0.723c-0.876,0.241-1.832,0.535-2.666,0.18
											c0.044-0.325,0.35-0.545,0.559-0.802c0.21-0.257,0.287-0.71-0.018-0.854c-0.141-0.067-0.309-0.034-0.461,0.003
											c-2.682,0.645-6.464,3.889-9.217,6.654c1.984-1.449,4.024-2.823,6.124-4.1c0.32-0.195,0.783-0.368,1.023-0.081
											c0.209,0.249,0.046,0.633-0.17,0.876c-0.216,0.243-0.496,0.474-0.527,0.798c2.403-0.668,4.806-1.336,7.209-2.004
											c0.784-0.218,1.634-0.434,2.394-0.141c-0.683,1.162-2.297,1.521-2.967,2.691c1.011,0.099,2.027-0.085,3.042-0.128
											c2.217-0.094,4.449,0.524,6.329,1.702c0.436-0.204,0.831-0.579,0.785-1.036
											C181.012,326.575,180.547,326.27,180.119,326.055z"/>
									</g>
									<g>
										<path id="XMLID_6_" style="fill:#FCD8AE;" d="M161.117,344.765c-0.298-0.374-0.653-0.691-1.057-0.946
											c-0.755-0.699-1.839-0.647-2.532,0.171c-0.861,1.015-0.574,2.477-0.096,3.595c0.495,1.157,1.382,2.659,2.697,2.988
											c1.038,0.26,1.928-0.301,2.21-1.288C162.941,347.862,162.244,345.985,161.117,344.765z"/>
										<path id="XMLID_3_" style="fill:#E8AB89;" d="M159.713,345.694c-0.482-0.336-1.364-0.601-1.512,0.198
											c-0.013,0.069,0.096,0.094,0.119,0.029c0.369-1.059,1.799,0.53,2.01,0.845c0.064,0.096,0.123,0.196,0.178,0.296
											c-0.292,0.008-0.567,0.105-0.805,0.293c-0.242,0.191-0.552,0.562-0.488,0.89c0.02,0.105,0.157,0.139,0.222,0.052
											c0.075-0.101,0.094-0.214,0.151-0.325c0.074-0.146,0.185-0.278,0.31-0.382c0.206-0.173,0.462-0.274,0.727-0.306
											c0.199,0.402,0.355,0.825,0.536,1.238c0.07,0.159,0.287,0.046,0.238-0.11
											C161.083,347.407,160.606,346.316,159.713,345.694z"/>
									</g>
									<g>
										<path style="fill:#E5B12E;" d="M169.051,338.828c-0.49-0.239-5.547,0.434-5.74,3.269c0.655-0.826,4.624-2.262,6.134-1.805
											L169.051,338.828z"/>
										<path style="fill:#E5B12E;" d="M174.067,337.25c0.297-0.408,4.647-1.76,5.955,0.75c-0.864-0.499-4.646-0.265-5.677,0.738
											L174.067,337.25z"/>
										<path style="fill:#A06632;" d="M174.647,344.194c-0.312-1.358-0.588-2.684-0.745-4.073c-0.01-0.088-0.143-0.093-0.141,0
											c0.023,1.068,0.139,2.098,0.37,3.141c0.111,0.502,0.275,0.999,0.37,1.505c0.441,1.162-0.115,1.781-1.667,1.857
											c-0.275-0.088-0.552-0.171-0.831-0.248c-0.184-0.053-0.258,0.188-0.122,0.289c0.758,0.562,2.418,0.799,2.915-0.281
											C175.09,345.743,174.791,344.818,174.647,344.194z"/>
										<path style="fill:#A06632;" d="M175.973,340.075c-0.586-0.16-0.671,0.583-0.47,1.068c0.024,0.124,0.063,0.244,0.139,0.352
											c0.149,0.212,0.448,0.404,0.71,0.27C176.979,341.444,176.528,340.228,175.973,340.075z"/>
										<path style="fill:#A06632;" d="M166.969,342.332c-0.586-0.161-0.671,0.583-0.47,1.068
											c0.024,0.124,0.063,0.244,0.139,0.352c0.149,0.212,0.448,0.405,0.71,0.271
											C167.976,343.701,167.524,342.484,166.969,342.332z"/>
										<path style="fill:#A06632;" d="M174.18,348.65c-2.099,0.453-4.083,0.182-5.814-1.155
											c-0.231-0.179-0.548,0.227-0.315,0.408c1.758,1.366,4.104,1.943,6.232,1.123
											C174.515,348.936,174.43,348.596,174.18,348.65z"/>
									</g>
								</g>
							</g>
						</g>
					</g>
					<path style="fill:#8BC53F;" d="M368.193,312.765c-5-3.891-11.632,0.174-15.57,3.786c-3.411,3.128-5.671,7.22-6.317,11.653
						c-2.134-1.977-4.75-3.399-7.645-4.099c-1.44-0.348-2.34,0.983-2.174,2.096c-0.172,0.521-0.055,1.104,0.541,1.567
						c4.114,3.192,7.277,7.229,9.387,11.99c0.629,1.418,2.872,0.952,3.219-0.421c2.523-9.98,9.112-18.526,18.119-23.507
						c0.574-0.317,0.832-0.798,0.863-1.293C368.869,313.937,368.808,313.243,368.193,312.765z"/>
				</g>
				<g>
					<path style="fill:#C8E5F0;" d="M368.59,170.646H131.729c-6.361,0-11.565-5.204-11.565-11.565V63.68
						c0-6.361,5.204-11.565,11.565-11.565H368.59c6.361,0,11.565,5.204,11.565,11.565v95.402
						C380.155,165.442,374.951,170.646,368.59,170.646z"/>
					<g>
						<g>
							<g>
								<g>
									<rect x="216.025" y="110.206" style="fill:#92BDC6;" width="147.809" height="4.384"/>
									<rect x="216.025" y="119.13" style="fill:#92BDC6;" width="147.809" height="4.384"/>
									<rect x="216.025" y="128.053" style="fill:#92BDC6;" width="147.809" height="4.384"/>
									<rect x="216.025" y="136.976" style="fill:#92BDC6;" width="147.809" height="4.384"/>
									<rect x="216.025" y="145.899" style="fill:#92BDC6;" width="147.809" height="4.384"/>
									<rect x="216.025" y="154.823" style="fill:#92BDC6;" width="147.809" height="4.384"/>
								</g>
								<rect x="136.484" y="136.833" style="fill:#92BDC6;" width="67.642" height="22.374"/>
								<rect x="216.025" y="63.555" style="fill:#92BDC6;" width="106.003" height="15.501"/>
								<rect x="216.025" y="83.753" style="fill:#92BDC6;" width="84.395" height="7.516"/>
								<rect x="216.025" y="95.966" style="fill:#92BDC6;" width="84.395" height="7.516"/>
								<circle style="fill:#92BDC6;" cx="170.305" cy="97.375" r="33.821"/>
							</g>
							<path style="fill:#8BC53F;" d="M368.193,63.413c-5-3.891-11.632,0.174-15.57,3.786c-3.411,3.128-5.671,7.22-6.317,11.653
								c-2.134-1.977-4.75-3.399-7.645-4.099c-1.44-0.348-2.34,0.983-2.174,2.096c-0.172,0.521-0.055,1.104,0.541,1.567
								c4.114,3.192,7.277,7.229,9.387,11.99c0.629,1.418,2.872,0.952,3.219-0.421c2.523-9.98,9.112-18.526,18.119-23.508
								c0.574-0.317,0.832-0.797,0.863-1.293C368.869,64.585,368.808,63.892,368.193,63.413z"/>
						</g>
						<g>
							<defs>
								<circle id="SVGID_00000051365101017099872710000000819499917592464772_" cx="170.305" cy="97.375" r="33.821"/>
							</defs>
							<clipPath id="SVGID_00000143617685041626262880000006835024187094293672_">
								<use xlink:href="#SVGID_00000051365101017099872710000000819499917592464772_"  style="overflow:visible;"/>
							</clipPath>
							<g style="clip-path:url(#SVGID_00000143617685041626262880000006835024187094293672_);">
								<path id="XMLID_391_" style="fill:#ABAE8D;" d="M168.167,114.078c0.025-0.003,0.03,0.036,0.004,0.039
									C168.146,114.12,168.142,114.081,168.167,114.078z"/>
								<g>
									<path style="fill:#F48468;" d="M161.886,96.582c0,0,0.996,8.664,0,11.573c-0.996,2.909-15.076,5.818-15.658,12.567
										c-0.582,6.749,27.888,13.963,27.888,13.963l16.562-9.542c0,0,0.293-13.085-4.855-14.147
										c-5.148-1.062-11.29-1.613-12.179-3.484c-0.813-1.711-0.572-5.667-0.572-5.667L161.886,96.582z"/>
									<path style="fill:#E05527;" d="M173.645,107.513c-0.813-1.711-0.572-5.667-0.572-5.667l-11.187-5.263
										c0,0,0.438,3.831,0.44,7.254c0.597,0.696,1.218,1.369,1.908,1.975c1.939,1.702,4.397,2.951,6.977,2.94
										c1.06-0.004,2.095-0.22,3.112-0.525C174.007,108.01,173.77,107.776,173.645,107.513z"/>
								</g>
								<g>
									<path id="XMLID_333_" style="fill:#E05527;" d="M183.051,92.664c-0.035-1.06-0.077-2.864-1.293-3.316
										c-0.698-0.26-1.391,0.109-1.468,0.741c-0.474,0.375-0.804,1.034-0.94,1.58c-0.164,0.659-0.137,1.355-0.085,2.026
										c0.067,0.869,0.115,2.14,0.456,2.96c0.375,0.902,1.353,0.608,2.011,0.123C182.993,95.849,183.099,94.098,183.051,92.664z"
										/>
									<path style="fill:#510820;" d="M162.102,80.153c0.464-2.014,1.081-4.246,2.861-5.296c0.67-0.395,1.443-0.576,2.21-0.707
										c2.76-0.469,5.643-0.34,8.292,0.565c2.649,0.905,5.05,2.608,6.622,4.925c0.695,1.024,1.236,2.207,1.217,3.445
										c-0.024,1.488-0.681,3.776-1.336,5.112c-0.975,1.99-2.213,5.182-2.523,7.376c-1.091-0.481-1.762-2.959-2.852-3.44
										c-1.311-0.578-2.625-1.158-3.882-1.847c-3.394-1.86-6.346-4.522-8.547-7.706"/>
									<g>
										<g id="XMLID_501_">
											<path id="XMLID_477_" style="fill:#F48468;" d="M159.589,92.038c1.083,7.918,6.644,13.893,11.704,13.482
												c4.646-0.377,8.556-5.309,8.974-9.868c0.202-2.207,0.278-4.476,0.145-6.691c-0.082-1.366-0.163-3.134-0.679-4.622
												c-0.189-0.752-0.444-1.489-0.793-2.199c-1.128-2.295-3.304-3.917-5.789-4.864c-2.789-1.063-6.188-0.911-8.731,0.498
												c-1.329,0.737-2.693,2.063-3.344,3.55c-0.493,0.853-0.804,1.83-0.995,2.846c-0.095,0.31-0.183,0.624-0.258,0.943
												c-0.412,1.744-0.47,3.603-0.303,5.452C159.507,91.062,159.528,91.556,159.589,92.038z"/>
										</g>
										<path style="fill:#E05527;" d="M179.732,84.338c-0.189-0.752-0.444-1.489-0.793-2.199
											c-1.128-2.295-3.304-3.917-5.789-4.864c-2.789-1.063-6.188-0.911-8.731,0.498c-1.329,0.737-2.693,2.063-3.344,3.55
											c-0.493,0.853-0.804,1.83-0.995,2.846c-0.095,0.31-0.183,0.624-0.258,0.943c-0.389,1.645-0.455,3.392-0.322,5.137
											l0.965,1.825c0.893-1.197,2.184-2.02,3.381-2.913c1.197-0.893,2.374-1.947,2.861-3.358
											c1.01,0.501,2.214,0.154,3.296-0.165c2.54-0.75,5.194-1.308,7.827-1.022c0.724,0.078,1.483,0.257,2.135,0.583
											C179.895,84.908,179.828,84.615,179.732,84.338z"/>
									</g>
									<g>
										<g id="XMLID_323_">
											<path id="XMLID_329_" style="fill:#610C1D;" d="M167.771,93.626c-0.068-0.465-0.196-1.132-0.756-1.235
												c-0.607-0.112-0.65,0.53-0.68,0.968c-0.005,0.075-0.009,0.178-0.012,0.29c-0.014,0.206-0.009,0.413,0.019,0.618
												c0.036,0.417,0.133,0.829,0.352,1.015c0.179,0.263,0.433,0.43,0.744,0.135C167.9,94.979,167.853,94.189,167.771,93.626z"
												/>
											<path id="XMLID_328_" style="fill:#610C1D;" d="M176.787,93.272c-0.031-0.469-0.108-1.144-0.658-1.29
												c-0.597-0.159-0.689,0.478-0.753,0.913c-0.011,0.074-0.023,0.177-0.034,0.288c-0.03,0.204-0.041,0.411-0.029,0.618
												c0.003,0.418,0.068,0.837,0.272,1.039c0.158,0.276,0.398,0.462,0.732,0.192C176.812,94.631,176.825,93.84,176.787,93.272
												z"/>
										</g>
										<path style="fill:#610C1D;" d="M178.717,88.711c-0.952-0.888-2.615-0.517-3.481,0.294
											c-0.082,0.077,0.028,0.226,0.122,0.159c0.481-0.342,1.036-0.536,1.631-0.523c0.564,0.012,0.997,0.255,1.505,0.452
											C178.711,89.176,178.876,88.859,178.717,88.711z"/>
										<path style="fill:#610C1D;" d="M168.679,89.09c-0.997-0.762-2.567-0.49-3.456,0.336c-0.132,0.123,0.005,0.371,0.181,0.31
											c1.096-0.379,1.984-1.108,3.177-0.478C168.695,89.32,168.777,89.165,168.679,89.09z"/>
										<path style="fill:#610C1D;" d="M173.789,96.003c-0.34-0.637-0.586-1.275-0.653-1.999c-0.105-1.139,0.178-2.254,0.52-3.33
											c0.012-0.036-0.044-0.05-0.056-0.016c-0.454,1.224-0.832,2.529-0.644,3.848c0.075,0.525,0.299,0.947,0.447,1.44
											c0.133,0.446,0.362,0.706,0.023,1.215c-0.262,0.393-0.841,0.637-1.263,0.818c-0.302,0.13-0.042,0.579,0.26,0.444
											c0.621-0.278,1.815-1.011,1.683-1.862C174.076,96.364,173.883,96.177,173.789,96.003z"/>
										<path style="fill:#610C1D;" d="M171.635,100.315c-0.921-0.023-1.732-0.066-2.594-0.443
											c-0.732-0.319-1.379-0.742-2.008-1.231c-0.255-0.198-0.621,0.147-0.364,0.364c1.4,1.18,3.158,2.077,5.01,1.629
											C171.86,100.591,171.816,100.32,171.635,100.315z"/>
									</g>
									<path style="fill:#610C1D;" d="M167.161,80.823c0.389,2.453-0.511,5.074-2.325,6.77c-0.832,0.778-1.838,1.37-2.575,2.239
										c-1.529,1.803-1.601,4.386-1.598,6.75c-3.337-4.22-4.423-10.122-2.806-15.254c0.214-0.679,0.482-1.362,0.962-1.889
										c0.834-0.916,2.153-1.203,3.39-1.27c1.378-0.074,2.931,0.149,3.784,1.235L167.161,80.823z"/>
									<g id="XMLID_310_">
										<path id="XMLID_314_" style="fill:#F48468;" d="M160.983,92.913c-0.239-0.414-0.542-0.78-0.904-1.093
											c-0.642-0.804-1.722-0.914-2.529-0.209c-1.002,0.875-0.937,2.364-0.631,3.541c0.317,1.218,0.97,2.835,2.221,3.357
											c0.988,0.412,1.951-0.01,2.377-0.944C162.325,96.247,161.915,94.287,160.983,92.913z"/>
										<path id="XMLID_312_" style="fill:#E05527;" d="M159.456,93.622c-0.426-0.404-1.259-0.797-1.524-0.029
											c-0.023,0.066,0.081,0.107,0.113,0.046c0.523-0.992,1.7,0.792,1.861,1.136c0.049,0.105,0.092,0.212,0.132,0.319
											c-0.29-0.035-0.576,0.019-0.839,0.17c-0.268,0.153-0.629,0.474-0.616,0.807c0.005,0.107,0.135,0.16,0.212,0.084
											c0.089-0.088,0.125-0.198,0.198-0.299c0.095-0.133,0.224-0.247,0.363-0.332c0.23-0.14,0.497-0.202,0.764-0.194
											c0.137,0.428,0.228,0.869,0.345,1.304c0.045,0.167,0.277,0.089,0.252-0.073C160.555,95.521,160.246,94.371,159.456,93.622
											z"/>
									</g>
									<g>
										<path style="fill:#610C1D;" d="M175.465,74.715c-2.649-0.905-5.532-1.034-8.292-0.565c-0.767,0.13-1.54,0.311-2.21,0.706
											c-1.78,1.05-2.397,3.282-2.861,5.296l2.061,2.428c0.229,0.331,0.47,0.652,0.715,0.972
											c0.351,0.292,0.721,0.559,1.127,0.767c2.066,1.06,4.581,0.603,6.762-0.192c2.181-0.795,4.294-1.911,6.605-2.134
											c1.213-0.117,2.548,0.067,3.414,0.925c0.199,0.198,0.354,0.423,0.487,0.66c0.016-0.17,0.029-0.338,0.031-0.493
											c0.02-1.237-0.522-2.421-1.217-3.445C180.515,77.324,178.114,75.62,175.465,74.715z"/>
										<path style="fill:#842531;" d="M175.465,74.715c-2.649-0.905-5.532-1.034-8.292-0.565c-0.767,0.13-1.54,0.311-2.21,0.706
											c-0.588,0.347-1.041,0.831-1.412,1.386c0.446-0.213,0.915-0.387,1.39-0.506c4.342-1.087,9.06,0.394,12.566,3.176
											c0.888,0.705,1.723,1.503,2.302,2.478c0.111,0.186,0.197,0.381,0.287,0.575c0.995,0.013,1.994,0.263,2.689,0.951
											c0.199,0.198,0.354,0.423,0.487,0.66c0.016-0.17,0.029-0.338,0.031-0.493c0.02-1.237-0.522-2.421-1.217-3.445
											C180.515,77.324,178.114,75.62,175.465,74.715z"/>
									</g>
								</g>
								<g>
									<path style="fill:#E6E7E8;" d="M180.034,113.011c-0.204,2.118-0.143,4.262-0.494,6.361
										c-0.352,2.098-1.182,4.217-2.82,5.575c-1.156,0.959-2.616,1.462-4.063,1.862c-2.667,0.737-5.626,1.16-8.117-0.046
										c-1.674-0.811-2.934-2.264-4.11-3.705c-0.981-1.202-3.746-3.626-2.717-5.437c0.904-1.59,5.007-0.973,6.616-1.133
										c2.719-0.271,5.422-0.706,8.089-1.302C173.207,115.011,179.968,113.688,180.034,113.011z"/>
									<g>
										<path style="fill:#E4B326;" d="M185.824,110.997c-3.228-0.666-6.846-1.132-9.316-1.847
											c-1.027,4.032-2.369,8.002-5.043,11.135c-4.095-3.191-8.224-6.416-11.691-10.264c-4.2,2.433-13.085,5.367-13.545,10.701
											c-0.582,6.749,27.888,13.963,27.888,13.963l16.562-9.542C190.678,125.145,190.971,112.06,185.824,110.997z"/>
										<path style="fill:#FCCA5B;" d="M171.464,120.285c-0.242-0.188-9.848-9.618-9.819-11.707
											c0.025-1.749-5.033-2.241-5.786,1.589c0,0-3.516,1.381-2.449,3.14C154.478,115.065,162.078,119.289,171.464,120.285z"/>
										<path style="fill:#FCCA5B;" d="M171.464,120.285c0.267,0.168,3.618-10.232,2.858-12.059
											c-0.599-1.438,3.055-1.96,4.278,0.924c0,0,4.246,0.118,3.217,1.791C180.787,112.614,176.166,118.435,171.464,120.285z"/>
									</g>
									<g>
										
											<path style="fill:none;stroke:#E6E7E8;stroke-width:0.9637;stroke-linecap:round;stroke-linejoin:round;stroke-miterlimit:10;" d="
											M170.652,121.011c0.458,2.698,0.339,5.492-0.348,8.141"/>
										
											<path style="fill:none;stroke:#E6E7E8;stroke-width:0.9637;stroke-linecap:round;stroke-linejoin:round;stroke-miterlimit:10;" d="
											M172.866,120.669c0.189,3.137,0.305,6.279,0.345,9.422"/>
									</g>
								</g>
							</g>
						</g>
					</g>
				</g>
			</g>
		</g>
		<g>
			<g>
				<ellipse style="fill-rule:evenodd;clip-rule:evenodd;fill:#92BDC6;" cx="112.393" cy="459.402" rx="36.653" ry="5.554"/>
				<g>
					<g>
						<g>
							<path style="fill:#8B7F49;" d="M143.793,456.616c0.132,0.757-1.866,2.978-10.06,3.591c-8.194,0.614-13.22-1.574-13.22-1.574
								s-0.709-1.597-2.335-1.875c0.039,1.011,0.069,1.784,0.069,1.784l-4.873-0.468l-0.08-2.081c0,0,4.969-0.13,5.261-0.261
								c0.293-0.13,5.661,2.07,10.079,2.155C133.052,457.971,143.793,456.616,143.793,456.616z"/>
							<path style="fill:#492C1D;" d="M126.65,447.217c5.272,3.526,6.093,5.482,11.561,5.52c5.468,0.038,4.771,1.307,5.573,2.767
								c0.802,1.46-1.145,2.529-7.071,3.503c-5.926,0.974-12.343-0.021-15.657-1.136c-2.823-2.068-3.495-1.343-3.495-1.343
								s-3.097-0.081-4.267-0.535c-0.104-2.696-0.874-5.097,0.803-8.596C117.006,447.284,126.65,447.217,126.65,447.217z"/>
						</g>
						<g>
							<path style="fill:#B99546;" d="M134.205,347.509c0,0-3.221,55.212-4.26,66.438c-1.039,11.227-0.859,34.586-0.859,34.586
								s-10.455,2.485-16.688-0.225c0-12.388,3.371-107.866,3.371-107.866l19.013,0.012L134.205,347.509z"/>
							
								<path style="fill:none;stroke:#996C38;stroke-width:0.4819;stroke-linecap:round;stroke-linejoin:round;stroke-miterlimit:10;stroke-dasharray:1.9274;" d="
								M112.723,445.556c0,0,6.224,2.303,16.155-0.309"/>
						</g>
					</g>
					<g>
						<path style="fill:#8B7F49;" d="M123.276,462.096c0.103,0.762-1.98,2.904-10.191,3.201c-8.211,0.298-13.149-2.082-13.149-2.082
							s-0.647-1.623-2.261-1.964c0,1.012,0,1.785,0,1.785l-4.851-0.656v-2.083c0,0,4.97,0.061,5.268-0.058
							c0.297-0.119,5.577,2.287,9.988,2.542C112.49,463.037,123.276,462.096,123.276,462.096z"/>
						<path style="fill:#492C1D;" d="M106.508,452.044c5.132,3.727,5.877,5.713,11.339,5.961c5.462,0.248,4.717,1.49,5.462,2.979
							c0.745,1.49-1.241,2.483-7.2,3.228c-5.959,0.745-12.333-0.497-15.601-1.738c-2.741-2.175-3.44-1.476-3.44-1.476
							s-3.091-0.2-4.244-0.699c0-2.698-0.677-5.127,1.134-8.559C96.868,451.739,106.508,452.044,106.508,452.044z"/>
						<g>
							<g>
								<path style="fill:#D2BB58;" d="M135.788,339.219c-1.663,9.9-7.945,14.287-15.427,16.078c0,0-9.305,70.314-10.163,97.839
									c-5.212,1.89-11.678,1.329-17.313-1.772c0-17.276,6.882-98.085,7.268-115.709
									C110.483,335.655,135.788,339.219,135.788,339.219z"/>
								<path style="fill:#B99546;" d="M99.651,346.321c18.701,2.751,28.994,0.827,34.622-1.845
									c0.667-1.553,1.186-3.292,1.515-5.257c0,0-25.304-3.565-35.636-3.565C100.098,338.103,99.919,341.774,99.651,346.321z"/>
							</g>
							<g>
								<g>
									<g>
										<path style="fill:none;stroke:#996C38;stroke-width:0.4819;stroke-linecap:round;stroke-linejoin:round;" d="
											M104.997,341.657c-0.037,0.319-0.074,0.638-0.11,0.958"/>
										
											<path style="fill:none;stroke:#996C38;stroke-width:0.4819;stroke-linecap:round;stroke-linejoin:round;stroke-dasharray:1.9334,1.9334;" d="
											M104.667,344.536c-3.948,34.8-6.642,69.188-7.918,103.11"/>
										<path style="fill:none;stroke:#996C38;stroke-width:0.4819;stroke-linecap:round;stroke-linejoin:round;" d="
											M96.714,448.612c-0.012,0.321-0.023,0.642-0.035,0.963"/>
									</g>
								</g>
								<g>
									<g>
										<path style="fill:none;stroke:#996C38;stroke-width:0.4819;stroke-linecap:round;stroke-linejoin:round;" d="
											M93.463,448.355c0,0,0.249,0.211,0.818,0.5"/>
										
											<path style="fill:none;stroke:#996C38;stroke-width:0.4819;stroke-linecap:round;stroke-linejoin:round;stroke-dasharray:2.1336,2.1336;" d="
											M96.265,449.621c2.222,0.654,5.924,1.199,11.656,0.588"/>
										<path style="fill:none;stroke:#996C38;stroke-width:0.4819;stroke-linecap:round;stroke-linejoin:round;" d="
											M108.989,450.085c0.313-0.039,0.631-0.082,0.955-0.129"/>
									</g>
								</g>
							</g>
						</g>
					</g>
					<g>
						<path style="fill:#B5BCCC;" d="M124.025,286.897c4.835,4.227,5.68,5.589,10.525,11.605
							c4.845,6.016,9.796,11.139,15.746,15.156c-2.073,7.079-9.97,6.434-14.678,3.433c-4.708-3-8.12-8.625-10.699-14.51
							c-2.579-5.885-4.504-12.21-7.255-17.97"/>
					</g>
					<g>
						<path style="fill:#71C6A9;" d="M135.788,339.219c0,0,0.369,4.34-0.619,4.889c-0.987,0.548-19.306,4.168-37.186-0.768
							l1.316-6.911L135.788,339.219z"/>
						<g>
							<path style="fill:#4DACA0;" d="M100.587,280.594c-4.918,1.303-11.89,11.12-12.313,16.189
								c-0.423,5.07,2.871,9.264,5.26,13.755c2.389,4.491,2.449,6.188,3.793,11.095c2.47,9.016,3.04,9.099,1.653,16.298
								c7.345,3.534,35.169,2.724,36.807,1.289c0.42-2.435,0.761-7.676,0.762-10.147c0.001-15.013-3.018-26.942-9.327-38.451
								c-1.595-2.91-4.233-5.255-7.222-6.698c-2.901-1.4-8.315-2.523-11.536-2.513C104.53,281.423,100.587,280.594,100.587,280.594z
								"/>
						</g>
						<path style="fill:#3C949A;" d="M135.788,339.219c0.116-0.674,0.226-1.567,0.325-2.554c-3.747,0.733-7.55,1.186-11.367,1.314
							c-2.643,0.089-5.315,0.029-7.889-0.579c-7.999-1.887-14.012-8.929-16.742-16.681c-2.73-7.752-2.686-16.181-2.255-24.388
							l-9.139,4.606c0.945,3.333,3.107,6.392,4.814,9.601c2.389,4.491,2.449,6.188,3.793,11.095c2.47,9.016,3.04,9.099,1.653,16.298
							C106.326,341.464,134.15,340.655,135.788,339.219z"/>
						<path style="fill:#71C6A9;" d="M102.138,304.69c1.657-8.452-1.409-17.483-4.226-20.079c-0.679-0.626-1.416-0.846-2.143-0.829
							c-3.736,3.657-7.2,9.474-7.494,13.001c-0.023,0.282-0.031,0.56-0.033,0.836c0.088,0.897,0.198,1.823,0.327,2.758
							c0.848,3.553,3.163,6.772,4.965,10.16c0.655,1.231,1.131,2.249,1.51,3.184C97.65,312.894,101.024,310.366,102.138,304.69z"/>
						<path style="fill:#71C6A9;" d="M100.587,280.594c-0.108,0.029-0.223,0.083-0.333,0.12
							c4.868,3.727,21.663,15.348,22.626,16.311c0.961,0.961,1.103-7.311-1.654-12.419c-0.397-0.246-0.803-0.478-1.226-0.682
							c-2.901-1.4-8.315-2.523-11.536-2.513C104.53,281.423,100.587,280.594,100.587,280.594z"/>
					</g>
					<g>
						<path style="fill:#F9BBAA;" d="M116.212,274.304c0,0-2.154,4.023,0.063,8.662c4.278,4.752,4.566,4.078,5.421,10.636
							c-8.582-7.342-12.086-10.061-16.271-11.545c-4.184-1.484,0.109-11.125,0.109-11.125L116.212,274.304z"/>
						<path style="fill:#CED3DA;" d="M113.833,287.078c2.104,1.637,4.62,3.749,7.863,6.524c-0.682-5.225-1.009-5.865-3.276-8.311
							L113.833,287.078z"/>
						<path style="fill:#F27D83;" d="M104.514,270.519c2.623,1.242,11.699,3.785,11.699,3.785s-0.717,1.167-0.721,2.41
							c-3.343,0-10.529-4.623-10.529-4.623S104.219,270.802,104.514,270.519z"/>
						<path style="fill:#E6E7E8;" d="M117.309,285.638c0.026,0.379,3.683,1.987,4.357,2.332c0.433,0.222-0.705-4.036-2.325-5.192
							c-1.225-0.875-4.012-3.14-4.012-3.14s0.207,1.68,0.392,2.196C116.134,282.988,117.258,284.882,117.309,285.638z"/>
						<g>
							<path style="fill:#E6E7E8;" d="M115.931,284.969c0.465,0.2,1.378,0.669,1.378,0.669c0.116,0.302-0.198,0.811-0.51,1.102
								c-1.209,1.129-1.674,1.746-2.482,3.809c-4.818-2.295-10.724-6.244-13.857-9.891c0.931-1.656,1.862-3.312,2.793-4.967
								C103.252,275.69,112.234,283.379,115.931,284.969z"/>
						</g>
					</g>
					<g>
						<path style="fill:#B5BCCC;" d="M135.917,282.779c0,0-6.815,1.919-6.639,7.066l4.703,0.703L135.917,282.779z"/>
						<g>
							<polygon style="fill:#F9BBAA;" points="133.531,280.661 136.678,285.924 131.56,290.949 129.553,284.64 							"/>
							<g>
								<g>
									<path style="fill:#E6E7E8;" d="M129.278,289.845c2.878-0.999,5.352-3.632,6.639-7.066
										c4.392,6.447,8.806,12.932,12.33,20.191c0.975,2.009,1.894,4.118,2.263,6.419c0.37,2.301,0.12,4.848-1.044,6.6
										c-1.438,2.163-4.017,2.668-6.173,1.775c-2.157-0.893-3.933-2.955-5.349-5.248
										C133.836,305.865,129.278,289.845,129.278,289.845z"/>
								</g>
								<path style="fill:#CED3DA;" d="M131.914,288.377c0,0-1.773,1.349-2.637,1.468c0.514,1.741,6.248,22.305,10.696,25.416
									C137.954,311.377,131.579,294.183,131.914,288.377z"/>
								<path style="fill:#F27D83;" d="M121.583,275.429c0.806-0.146,1.641,0.23,2.204,0.781c0.563,0.551,0.907,1.256,1.241,1.947
									l-0.072,0.173c1.853,0.212,3.653,0.802,5.235,1.715c1.026,0.593,2.042,1.469,2.06,2.583
									c0.013,0.812-0.537,1.525-1.253,2.023l-1.444,0.386c-0.889,0.161-1.82,0.13-2.674-0.149
									c-1.318-0.43-2.422-1.389-2.964-2.575c-0.643-1.408-0.567-3.154-1.735-4.24c-0.472-0.439-1.139-0.76-1.342-1.348
									C120.589,276.005,120.777,275.576,121.583,275.429z"/>
								<g>
									<path style="fill:#F9BBAA;" d="M131.079,274.577c-1.896-2.293-5.854-2.165-8.204-0.34c-0.54,0.419-1.037,0.979-1.11,1.659
										c-0.072,0.68,0.465,1.442,1.147,1.379c0.532-0.049,0.899-0.529,1.296-0.886c0.823-0.741,2.026-1.035,3.098-0.757
										c-0.796,0.344-1.605,0.694-2.27,1.251c-0.664,0.557-1.176,1.36-1.177,2.227c-0.001,0.867,0.624,1.754,1.485,1.857
										c0.566,0.068,1.309-0.112,1.578,0.391c0.249,0.465-0.199,1.146,0.168,1.525c0.31,0.32,0.883,0.074,1.278,0.282
										c0.329,0.175,0.419,0.594,0.606,0.917c0.434,0.751,1.486,0.975,2.296,0.664c0.809-0.312,1.393-1.039,1.777-1.817
										C134.468,280.054,132.446,276.23,131.079,274.577z"/>
								</g>
							</g>
						</g>
					</g>
					<g>
						<g>
							<path id="XMLID_20_" style="fill:#F9BBAA;" d="M123.185,275.156c3.182-3.163,4.666-9.827,4.144-12.878
								c-0.146-0.856,0.909-1.68,0.617-2.405c-0.118-0.294-0.951-1.231-2.905-1.165c-1.468-1.962-1.249-3.604-0.769-5.625
								c-0.807-1.572-3.154-11.487-15.328-9.415c-3.903,0.664-8.021,2.209-10.395,5.227c-1.241,1.577-2.218,3.87-2.244,5.974
								c-0.161,1.271-0.034,2.591,0.258,3.894c0.044,0.417,0.1,0.835,0.173,1.252c0.399,2.281,3.173,6.715,4.333,8.812
								C101.313,269.419,115.475,276.225,123.185,275.156z"/>
							<path style="fill:#F27D83;" d="M123.728,251.761c-1.272-3.129-4.567-9.833-14.784-8.093
								c-3.903,0.664-8.021,2.209-10.395,5.227c-0.62,0.788-1.175,1.756-1.577,2.789c-0.064,1.475,0.159,2.952,0.506,4.389
								c0.704,2.911,1.901,5.718,3.657,8.143l4.467-1.776c1.429-1.742,2.858-3.484,4.287-5.227
								c-0.008,0.473,0.477,0.835,0.949,0.868c0.472,0.033,0.924-0.172,1.353-0.372c2.203-1.028,4.406-2.056,6.609-3.083
								c1.655-0.772,3.329-1.556,4.748-2.707C123.609,251.868,123.667,251.813,123.728,251.761z"/>
						</g>
						<g>
							<path id="XMLID_16_" style="fill:#8A5D3B;" d="M121.326,255.961c-0.101,0.031-0.194,0.09-0.267,0.166
								c-0.6,0.627-0.107,1.739,0.3,2.323c0.187,0.267,0.436,0.533,0.76,0.562c0.259,0.023,0.524-0.13,0.634-0.365
								c0.108-0.231,0.069-0.502,0.007-0.75c-0.142-0.569-0.393-1.11-0.735-1.586c-0.111-0.154-0.243-0.309-0.426-0.359
								C121.509,255.929,121.415,255.934,121.326,255.961z"/>
							<path id="XMLID_15_" style="fill:#8A5D3B;" d="M126.404,264.756c-1.084,0.503-2.236,0.432-3.336,0.009
								c-0.806-0.31-1.514-0.847-2.317-1.139c-0.235-0.085-0.394,0.161-0.279,0.359c0.47,0.802,2.019,1.341,2.867,1.585
								c1.156,0.332,2.292,0.283,3.286-0.424C126.831,265,126.637,264.648,126.404,264.756z"/>
							<path style="fill:#8A5D3B;" d="M124.272,253.083c0,0-1.02,3.818,1.13,5.478c1.891,0,4.06,1.175,1.959,3.298
								c-2.101,2.123,0.625-0.573,0.277-1.725c-0.348-1.152-2.256-0.984-2.598-1.119
								C124.699,258.879,122.462,255.978,124.272,253.083z"/>
							<path style="fill:#8A5D3B;" d="M121.505,254.184c-0.211-0.045-1.895-0.539-2.517,1.285c-0.622,1.824-0.681,0.255-0.296-0.367
								c0.385-0.622,1.047-1.773,2.813-1.451C123.27,253.973,121.843,254.255,121.505,254.184z"/>
						</g>
						<g>
							<path style="fill:#8A5D3B;" d="M101.883,239.472c1.203-0.933,2.821-1.238,4.356-1.141c1.535,0.096,3.019,0.556,4.484,1.013
								c1.379,0.43,2.759,0.86,4.138,1.29c2.134,0.665,4.28,1.335,6.271,2.337c1.74,0.876,2.998,2.346,4.186,3.847
								c1.394,1.762,0.978,4.246-0.767,5.113c0.095-1.329-0.851-2.797-1.395-4.02c0.382,0.876,0.061,1.924-0.554,2.664
								c-0.615,0.74-1.48,1.235-2.33,1.707c-2.611,1.452-5.283,2.849-8.16,3.697c0.046-0.76,0.366-1.502,0.89-2.067
								c-1.015,1.056-2.282,1.882-3.673,2.392c-0.293,0.107-0.607,0.213-0.8,0.453c-0.18,0.225-0.217,0.524-0.272,0.804
								c-0.223,1.124-0.835,2.132-1.403,3.134c-1.604,2.825-1.791,8.171-1.891,11.398c-0.025,0.812-0.025,0.812-0.518,2.241
								c-3.42-3.629-7.196-7.472-9.731-11.734c-0.971-1.633-1.848-3.346-2.262-5.189c-0.447-1.994-0.336-4.061-0.223-6.099
								c0.063-1.139,0.152-2.349,0.846-3.268c0.675-0.894,1.794-1.341,2.856-1.746c1.673-0.638,2.95-0.79,3.532-2.485
								C100.008,242.221,100.439,240.553,101.883,239.472z"/>
							<path style="fill:#9B6D4E;" d="M125.318,246.818c-1.188-1.502-2.446-2.972-4.186-3.847c-1.991-1.002-4.137-1.672-6.271-2.337
								c-1.38-0.43-2.759-0.86-4.138-1.29c-1.465-0.457-2.949-0.917-4.484-1.013c-1.535-0.096-3.153,0.208-4.356,1.141
								c-0.637,0.477-1.071,1.072-1.411,1.72c0.719-0.441,1.532-0.749,2.359-0.884c1.979-0.324,4.004,0.138,5.907,0.771
								c1.903,0.634,3.756,1.444,5.721,1.849c1.264,0.261,2.564,0.351,3.809,0.694c1.245,0.343,2.473,0.985,3.167,2.074
								c0.693,1.089,0.683,2.687-0.277,3.551c0.142-0.768-0.225-1.605-0.887-2.02c0.529,1.143-0.017,2.474-0.585,3.598
								c-0.435,0.859-0.906,1.718-1.421,2.546c0.675-0.354,1.343-0.719,2.008-1.089c0.849-0.472,1.714-0.967,2.33-1.707
								c0.615-0.74,0.937-1.787,0.555-2.664c0.544,1.223,1.49,2.69,1.395,4.02C126.296,251.064,126.712,248.58,125.318,246.818z"/>
						</g>
						<g id="XMLID_1_">
							<path id="XMLID_14_" style="fill:#F9BBAA;" d="M103.864,261.576c-0.478-0.353-1.006-0.619-1.574-0.796
								c-1.132-0.597-2.417-0.185-2.986,1.02c-0.707,1.495,0.107,3.159,1.042,4.348c0.967,1.23,2.515,2.748,4.201,2.72
								c1.33-0.022,2.219-0.981,2.239-2.258C107.051,264.708,105.61,262.679,103.864,261.576z"/>
							<path id="XMLID_13_" style="fill:#F27D83;" d="M102.477,263.143c-0.687-0.248-1.831-0.282-1.751,0.724
								c0.007,0.087,0.146,0.082,0.152-0.004c0.102-1.391,2.331,0.058,2.685,0.368c0.109,0.095,0.21,0.196,0.31,0.298
								c-0.349,0.104-0.647,0.308-0.872,0.61c-0.229,0.308-0.482,0.853-0.3,1.226c0.058,0.12,0.233,0.116,0.283-0.009
								c0.057-0.145,0.044-0.287,0.076-0.439c0.043-0.198,0.133-0.393,0.249-0.559c0.192-0.274,0.466-0.477,0.775-0.601
								c0.369,0.419,0.692,0.877,1.042,1.314c0.135,0.168,0.359-0.037,0.25-0.208C104.674,264.76,103.75,263.603,102.477,263.143z"
								/>
						</g>
					</g>
					<g>
						<g>
							<path style="fill:#F9BBAA;" d="M112.84,335.493c0.155,0.151,0.307,0.318,0.365,0.526c0.201,0.729-0.822,1.189-1.57,1.076
								c-1.517-0.229-3.011-1.4-4.432-0.821c2.241,0.848,3.45,3.311,3.886,5.666c0.154,0.832,0.022,1.986-0.815,2.111
								c-0.75,0.112-1.241-0.745-1.504-1.456c0.112,0.754,0.224,1.509,0.337,2.263c0.058,0.388,0.105,0.822-0.127,1.139
								c-0.328,0.448-1.063,0.386-1.482,0.021c-0.419-0.365-0.602-0.924-0.767-1.455c0.202,0.929,0.264,2.162-0.602,2.554
								c-0.789,0.357-1.658-0.355-2.083-1.109c-0.425-0.754-0.71-1.662-1.449-2.113c-1.134,1.153-2.77,1.795-4.385,1.719
								c-1.616-0.076-3.184-0.867-4.205-2.122c-0.106-0.106,3.985-4.726,4.487-5.142c1.073-0.889,2.386-1.263,3.59-1.924
								c1.858-1.019,3.302-2.519,5.514-2.724C109.489,333.527,111.472,334.161,112.84,335.493z"/>
							<path style="fill:#F27D83;" d="M98.282,344.553c1.496-2.198,2.375-4.826,2.45-7.475c-0.783,0.354-1.559,0.709-2.238,1.272
								c-0.502,0.416-4.593,5.036-4.487,5.142c0.88,1.081,2.167,1.815,3.54,2.047C97.805,345.22,98.051,344.892,98.282,344.553z"/>
						</g>
						<g>
							<path style="fill:#E6E7E8;" d="M94.217,285.805c0,0-24.193,27.117-21.922,37.043c2.271,9.926,21.711,23.054,21.711,23.054
								c4.023-2.978,6.298-6.259,6.961-8.866c0,0-15.792-12.383-11.329-17.807c4.463-5.424,8.357-7.544,10.823-14.835
								C101.257,302.037,99.742,281.84,94.217,285.805z"/>
							<path style="fill:#CED3DA;" d="M97.256,304.893c-1.995,4.695-5.382,8.854-7.008,13.613c4.205-4.9,7.858-7.157,10.211-14.112
								c0.447-1.32,0.167-8.24-1.137-13.374C99.703,295.743,99.104,300.544,97.256,304.893z"/>
							<path style="fill:#CED3DA;" d="M96.298,342.09c-2.379,0.073-4.679-0.82-6.815-1.869c-4.478-2.197-8.571-5.161-12.091-8.695
								c6.489,7.537,16.613,14.376,16.613,14.376c1.818-1.346,3.261-2.752,4.377-4.131C97.703,341.944,97.011,342.068,96.298,342.09
								z"/>
						</g>
					</g>
				</g>
			</g>
			<g>
				<ellipse style="fill-rule:evenodd;clip-rule:evenodd;fill:#92BDC6;" cx="394.374" cy="460.651" rx="36.653" ry="5.554"/>
				<g>
					<g>
						<path style="fill:#F9BBAA;" d="M384.456,297.28c-0.264-0.423-0.628-0.751-1.044-0.991c-1.513,0.666-2.817,1.662-3.856,2.918
							c-0.735,1.425-1.444,2.866-2.14,4.31c-1.494,3.107-2.904,6.251-4.241,9.427c-1.248,2.982-2.423,5.99-3.531,9.025
							c-4.873-4.784-11.286-8.315-13.856-14.895l-0.026-0.042c-0.042-0.12-0.094-0.23-0.151-0.34
							c-0.574-2.233-0.666-4.429-0.918-6.688c-0.655-3.057-3.228-6.711-6.358-7.71c-3.13-0.999,0,1.555,1.153,2.049
							s2.142,3.377,2.142,3.377s-0.659-0.577-2.471,0.742c-1.812,1.318-2.883,2.389-2.966,4.448
							c-0.082,2.059,0.659,4.284,0.906,3.378c0.247-0.906,0.165-2.389,0.165-2.389s0.301,0.696,0.786,1.372
							c0.028,0.055,0.064,0.108,0.113,0.157c0.647,0.642,0.94,1.572,1.535,2.261c0.397,0.46,0.851,0.804,1.363,1.102
							c-0.031,1.583,0.721,3.275,1.426,4.659c-0.005,0.047,0,0.089,0.021,0.141c1.917,3.912,4.204,7.625,6.873,11.072
							c2.167,2.789,4.539,5.776,7.766,7.364c0.684,0.794,2.251,0.684,3.358,0.235c2.387-0.971,3.776-3.489,5.087-5.557
							c3.327-5.228,6.152-10.801,8.215-16.655c1.013-2.878,1.87-5.933,1.666-9.014C385.396,299.844,385.177,298.33,384.456,297.28z"
							/>
						<path style="fill:#F27D83;" d="M347.263,303.898c1.208,1.906,1.938,2.715,2.293,2.499c0.316-0.192-1.057-2.509-1.129-3.529
							c-0.055-0.781,0-1.297,0-1.297s-0.031,1.462,0.669,2.76c0.483,0.895,1.092,1.925,1.586,2.085
							c0.494,0.16-1.03-3.506-1.071-4.453c-0.041-0.947,0.305-1.293,0.305-1.293s-0.101,0.421-0.12,0.881
							c-0.021,0.494,0.103,1.133,0.185,1.4c0.082,0.268,0.885,2.636,0.906,2.986c0.021,0.35,0.062,0.7-0.165,0.659
							c-0.227-0.041-0.927-0.927-1.359-1.586c-0.432-0.659-0.494-0.844-0.494-0.844s0.865,1.936,0.886,2.142
							c0.021,0.206-0.281,0.281-0.529,0.172c-0.247-0.11-0.837-0.731-1.064-1.052C347.936,305.107,347.524,304.516,347.263,303.898z
							"/>
						<path style="fill:#F27D83;" d="M354.046,299.615c0,0-2.499-1.4-4.256-0.439c-1.757,0.961-2.348,2.362-1.497,2.389
							c0.851,0.027,1.909-1.167,2.54-0.838c0.632,0.33,0.934,0.81,0.769,1.25c-0.165,0.439-1.043,3.982,0.247,5.025
							c-0.275-0.632-0.741-2.362-0.11-4.86c0.055-0.329,0.233-0.851-0.316-1.29c-0.549-0.439-1.185-0.433-1.771-0.027
							c-1.062,0.735-2.029,0.808-1.455-0.069c0.728-1.112,2.032-1.936,3.323-1.84C351.863,298.956,352.961,299.148,354.046,299.615z
							"/>
						<path style="fill:#DD941F;" d="M388.635,294.843c-1.552,0.442-7.952-0.28-9.409,3.996c-1.823,5.352-8.533,19.725-9.086,21.783
							c-0.278,0.751-0.352,1.406-1.647,0.263c-1.295-1.143-3.1-2.662-3.1-2.662s0.172,5.051-5.561,7.02
							c1.098,1.374,5.306,8.065,8.848,7.818c3.542-0.247,6.387-3.213,7.683-5.684c1.296-2.471,3.364-7.834,3.938-9.024
							C380.876,317.162,381.464,301.504,388.635,294.843z"/>
					</g>
					<g>
						<path id="XMLID_77_" style="fill:#F9BBAA;" d="M379.889,315.637c-0.872-1.133-1.676-2.377-1.796-3.839
							c-0.178-2.162,0.935-4.429,1.593-6.429c0.209-0.642,0.486-1.337,0.752-2.058c0.115-1.802,0.376-3.588,0.81-5.343
							c-0.001-0.003-0.002-0.006-0.003-0.009c0.009-0.02,0.023-0.035,0.03-0.055c0.05-0.143,0.077-0.289,0.1-0.437
							c0.088-0.33,0.179-0.651,0.279-0.976c0.09-0.17,0.192-0.334,0.308-0.475c0.044-0.054,0.117-0.099,0.197-0.143
							c0.001,0,0.002,0,0.002,0.001c1.389-0.418,2.841-0.663,4.277-0.846c1.609-0.209,3.327-0.11,4.857-0.705
							c1.786-0.689,3.25-1.876,3.87-3.531c0.384-1.025,0.522-2.136,0.773-3.196c0.198-0.836,0.251-2.324,1.029-2.904
							c0.752-0.559,2.173-0.366,3.045-0.392c1.708-0.042,3.421,0.031,5.124,0.188c0.146,0.016,0.287,0.12,0.282,0.282
							c-0.073,1.311-0.34,2.588-0.527,3.886c-0.282,1.946,0.219,3.859,1.405,5.698c1.645,2.544,4.204,3.844,6.314,5.876l0.057,0.125
							c0.762,0.648,1.426,1.395,1.875,2.262c1.144,2.209,0.277,4.324-0.851,6.335c-1.614,2.867-3.446,5.265-5.331,7.965
							c-0.924,1.327-2.464,2.754-2.79,4.36c-0.857,4.22,2.679,8.21,4.852,11.929c1.029,1.755,2.376,3.442,2.909,5.432
							c0.465,1.739,0.094,3.468-0.768,5.019c-1.859,3.369-5.249,6.33-8.377,8.497c-3.113,2.157-6.763,3.64-10.597,3.598
							c-3.661-0.042-7.761-1.431-9.902-4.565l-0.021-0.052c-3.144-3.275-4.251-8.414-4.408-12.796
							c-0.131-3.672,0.183-7.364,0.387-11.031c0.078-1.374,0.162-2.747,0.245-4.121c0-0.376,0.063-0.96,0.076-1.336
							c0.076-2.174,0.729-4.051,0.065-6.023C380.005,315.753,379.941,315.7,379.889,315.637z"/>
						<path id="XMLID_74_" style="fill:#F27D83;" d="M394.537,292.194c-0.055-0.006-0.109-0.02-0.163-0.03
							c0.33-0.415,0.604-0.87,0.792-1.372c0.384-1.025,0.522-2.136,0.773-3.196c0.198-0.836,0.251-2.324,1.029-2.904
							c0.752-0.559,2.173-0.366,3.045-0.392c1.708-0.042,3.421,0.031,5.124,0.188c0.146,0.016,0.287,0.12,0.282,0.282
							c-0.073,1.311-0.34,2.588-0.527,3.886c-0.06,0.414-0.077,0.826-0.067,1.236C401.915,291.915,397.895,292.565,394.537,292.194z
							"/>
						<path style="fill:#CBE0F4;" d="M407.499,295.868c-7.184,5.888-16.095,5.242-16.203-1.545
							c-2.945,0.541-10.029,9.81-10.994,24.029c-0.964,14.219-1.268,22.02-1.268,22.02l25.552,1.46c0,0-2.791-36.235,4.212-44.746
							C407.499,295.868,407.499,295.868,407.499,295.868z"/>
						<path style="fill:#E4AE23;" d="M414.542,302.617c-0.449-0.867-1.112-1.614-1.875-2.262l-0.057-0.125
							c-1.636-1.575-3.537-2.717-5.077-4.333c-0.011-0.009-0.023-0.019-0.034-0.029c-6.436,4.162-13.582,13.632-18.406,21.031
							c-3.753-15.117,3.803-23.392,3.803-23.392l-0.01-0.002c-0.488,0.321-1.02,0.597-1.59,0.818
							c-1.53,0.595-3.249,0.496-4.857,0.705c-1.436,0.183-2.888,0.428-4.277,0.846c-0.001,0-0.002,0-0.002-0.001
							c-0.08,0.045-0.152,0.09-0.197,0.143c-0.116,0.141-0.219,0.306-0.308,0.475c-0.1,0.325-0.191,0.646-0.279,0.976
							c-0.023,0.148-0.051,0.294-0.1,0.437c-0.007,0.02-0.022,0.036-0.03,0.055c0.001,0.003,0.002,0.006,0.003,0.009
							c-0.434,1.755-0.695,3.541-0.81,5.343c-0.266,0.721-0.543,1.415-0.752,2.058c-0.658,2-1.771,4.267-1.593,6.429
							c0.12,1.462,0.924,2.706,1.796,3.839c0.052,0.063,0.116,0.116,0.142,0.193c0.664,1.972,0.01,3.849-0.065,6.023
							c-0.013,0.376-0.076,0.96-0.076,1.336c-0.083,1.374-0.167,2.747-0.245,4.121c-0.204,3.666-0.517,7.359-0.387,11.031
							c0.087,2.444,0.489,5.115,1.356,7.575l4.891,1.808l2.543-6.836l2.712,6.836l21.247-3.161c0.193-0.299,0.388-0.599,0.557-0.905
							c0.862-1.551,1.233-3.28,0.768-5.019c-0.049-0.183-0.111-0.36-0.173-0.538c-0.21-0.563-0.517-1.206-0.876-1.883
							c-0.584-1.027-1.272-2.008-1.859-3.01c-0.716-1.226-1.579-2.482-2.386-3.766c-0.405-0.631-0.991-1.552-1.501-2.661
							c-0.854-1.786-1.347-3.621-0.965-5.501c0.163-1.066,1.346-2.697,2.893-4.505c1.849-2.64,3.644-5.005,5.228-7.82
							C414.819,306.941,415.686,304.826,414.542,302.617z"/>
					</g>
					<g>
						<g>
							<g>
								<path id="XMLID_145_" style="fill:#F27D83;" d="M378.43,361.249l0.006,0.115c0.01-0.337,0.02-0.673,0.03-1.005
									c0.026-0.821-0.066-1.736,0.578-2.348c1.694-1.6,5.117-1.408,7.228-1.284c2.374,0.14,4.949,0.623,6.766,2.281
									c1.357,1.24,2.152,2.968,1.951,4.766c0.026,7.017-0.043,14.033-0.107,21.049c-0.03,3.639-0.06,7.272-0.09,10.911
									c-0.031,3.513-0.229,7.094,0.381,10.572c0.608,3.452,2.379,6.441,3.546,9.703c1.103,3.084,1.421,6.354,1.307,9.612
									c-0.239,6.828-1.716,13.716-3.023,20.404c-0.302,1.561-0.51,3.228-1,4.744c-0.296,0.915-0.888,1.911-1.966,1.935
									c-1.387,0.031-1.914-1.349-2.034-2.663c-0.612-2.821-0.928-5.757-1.197-8.65c-0.486-2.816-0.977-5.631-1.522-8.437
									c-1.124-5.769-2.345-11.523-3.541-17.279c-2.388-11.477-4.727-22.984-6.191-34.623c-0.827-6.563-1.347-13.156-1.414-19.776
									C378.136,361.088,378.422,361.056,378.43,361.249z"/>
								<g id="XMLID_142_">
									<path id="XMLID_144_" style="fill:#31122E;" d="M376.258,455.817c0.632-0.637,1.901-0.909,2.776-1.233
										c1.397-0.517,2.808-1.024,4.218-1.52c2.642-0.924,5.398-2.099,8.187-2.679c2.048-0.428,3.458,0.454,4.499,1.828
										c0.772,0.851,1.544,1.703,2.265,2.58c0.581,0.7,1.263,1.52,1.129,2.413c-0.236,1.551-2.572,2.073-4.135,2.277
										c-2.839,0.376-5.813-0.057-8.646-0.282c-2.859-0.22-5.934-0.246-8.665-1.039
										C376.679,457.812,375.154,456.924,376.258,455.817z"/>
									<path id="XMLID_143_" style="fill:#F27D83;" d="M382.337,453.393c0.305-0.108,0.608-0.222,0.914-0.329
										c2.642-0.924,5.398-2.099,8.187-2.679c2.001-0.418,3.392,0.415,4.424,1.734c-0.899,0.615-2.081,1.007-3.112,1.372
										c-1.819,0.643-3.72,1.118-5.673,1.395C385.724,455.082,380.987,455.56,382.337,453.393z"/>
								</g>
							</g>
							<g>
								<g id="XMLID_87_">
									<path id="XMLID_90_" style="fill:#31122E;" d="M408.482,457.043c1.1-2.637,1.72-5.842,3.246-8.255
										c0.818-1.293,1.972-2.032,3.412-1.908c0.11-0.069,0.247-0.099,0.401-0.042c2.505,0.914,8.255,2.468,5.367,6.086
										c-1.676,2.098-3.835,4.046-5.718,5.978c-1.57,1.611-3.428,3.157-5.668,3.69
										C405.29,463.596,407.663,459.006,408.482,457.043z"/>
									<path id="XMLID_88_" style="fill:#F9BBAA;" d="M411.728,448.787c0.818-1.293,1.972-2.032,3.412-1.908
										c0.11-0.069,0.247-0.099,0.401-0.042c0.581,0.212,1.336,0.459,2.118,0.758c-0.667,3.274-2.489,6.179-5.084,8.291
										c-1.185,0.965-2.98,1.711-4.08,1.125C409.587,454.379,410.208,451.191,411.728,448.787z"/>
								</g>
								<path id="XMLID_82_" style="fill:#F9BBAA;" d="M391.076,399.061c-0.146-4.883-0.226-9.757-0.544-14.634
									c-0.665-10.188-2.073-20.273-3.578-30.364c-0.039-0.257,0.203-0.352,0.39-0.279c0.117-0.091,0.274-0.135,0.467-0.095
									c5.605,1.176,11.891,0.125,17.238,2.339c0.159-0.136,0.48-0.088,0.529,0.189c1.402,7.83,1.864,15.734,1.229,23.668
									c-0.312,3.904-0.906,7.762-1.663,11.603c-0.811,4.113-1.78,8.482-1.103,12.68c0.715,4.434,3.462,7.76,5.475,11.634
									c1.455,2.8,2.404,5.798,3.054,8.879c0.051,0.244,0.096,0.489,0.144,0.734c1.093,4.674,1.932,9.404,2.573,14.162
									c0.373,2.771,1.188,6.1,0.983,8.911c-0.09,1.237-0.081,1.976-1.334,2.333c-0.009,0.003-0.016,0.001-0.024,0.003
									c-0.537,0.267-1.194,0.285-1.844-0.117c-1.239-0.766-2.077-3.46-2.671-4.628c-1.252-2.464-2.494-4.933-3.727-7.407
									c-5.006-10.047-10.202-20.144-14.275-30.613c-0.038-0.097-0.032-0.181,0-0.249
									C391.414,405.026,391.166,402.071,391.076,399.061z"/>
							</g>
						</g>
						<g>
							<path id="XMLID_53_" style="fill:#5C6EB3;" d="M425.158,398.083c-3.261,2.103-6.545,1.703-10.203,1.318
								c-6.829-0.72-12.648,1.121-18.994,3.362c-2.899,1.024-5.872,1.951-8.985,1.773c-3.717-0.212-6.87-2.101-10.26-3.425
								c-3.655-1.428-7.04-1.737-10.266-1.001c0.336-1.969,0.661-3.94,1.006-5.909c3.099-17.667,6.538-35.274,10.301-52.816
								c0.055-0.264,0.175-0.459,0.324-0.604c0.2-0.26,0.514-0.434,0.953-0.409c10.885,0.624,21.764,1.243,32.649,1.866
								c0.469,0.03,0.793,0.264,0.988,0.579c0.579-0.115,1.213,0.12,1.392,0.858c2.81,11.439,5.839,22.837,9.313,34.091
								c1.592,5.16,3.369,10.296,5.914,15.072c0.083,0.157,0.174,0.31,0.259,0.466C428.584,395.281,426.787,397.033,425.158,398.083
								z"/>
							<path id="XMLID_52_" style="fill:#454C9B;" d="M378.55,342.128c0.499-0.612,1.036-1.171,1.597-1.693
								c10.513,0.602,21.022,1.2,31.536,1.803c0.469,0.03,0.793,0.264,0.988,0.579c0.041-0.008,0.082-0.01,0.123-0.015
								c0.003,0.005,0.008,0.009,0.012,0.015c0.062-0.012,0.124-0.018,0.187-0.023c0.475,0.016,0.924,0.278,1.071,0.881
								c2.81,11.439,5.839,22.837,9.313,34.091c1.592,5.16,3.369,10.296,5.914,15.072c0.083,0.157,0.174,0.31,0.259,0.466
								c-0.966,1.976-2.762,3.728-4.391,4.779c-3.261,2.103-6.545,1.703-10.203,1.318c-6.829-0.72-12.648,1.121-18.994,3.362
								c-2.8,0.989-5.67,1.877-8.667,1.777c3.402-1.068,6.216-3.633,9.098-5.873c3.058-2.376,6.044-3.726,9.797-4.625
								c4.827-1.155,8.625-2.961,10.236-8c0.996-3.116,0.821-6.323,0.345-9.507c-0.674-2.667-1.342-5.333-2.063-7.987
								c-1.233-4.527-2.4-9.742-5.764-13.22c-3.908-4.048-10.191-3.738-15.341-4.691c-5.735-1.059-11.254-2.924-16.532-5.378
								c0.229-1.08,0.456-2.16,0.687-3.239C378.01,341.997,378.276,342.024,378.55,342.128z"/>
							<path id="XMLID_104_" style="fill:#7882BF;" d="M376.664,394.6c-0.407,1.969-0.842,3.976-1.263,6.004
								c-3.106-0.98-6.021-1.132-8.816-0.494c0.337-1.969,0.661-3.94,1.006-5.909c2.788-15.894,5.853-31.739,9.18-47.532
								c1.494,2.703,2.852,5.493,3.631,8.49c1.128,4.342,1.028,8.903,0.674,13.335C380.372,377.313,378.456,385.957,376.664,394.6z"
								/>
						</g>
					</g>
					<g>
						<path style="fill:#C3996B;" d="M397.222,350.681l-20.259,0.056c-0.644,0.002-1.394-0.483-1.665-1.078l-13.305-29.157
							c-0.271-0.595,0.034-1.083,0.678-1.085l20.259-0.056c0.644-0.002,1.394,0.483,1.665,1.078l13.305,29.157
							C398.171,350.192,397.866,350.68,397.222,350.681z"/>
						<g>
							<path style="fill:#F9BBAA;" d="M380.775,337.742c0.702,1.216,1.413,2.458,1.709,3.831c0.296,1.373,0.115,2.923-0.81,3.979
								c-0.974,1.112-2.533,1.463-3.983,1.75c-0.964,0.191-1.945,0.38-2.924,0.284c-0.978-0.097-1.97-0.523-2.523-1.336
								c-0.755-1.11-0.58-2.728-1.52-3.686c-0.376-0.383-0.941-0.697-0.958-1.233c-0.015-0.491,0.47-0.914,0.392-1.4
								c-0.084-0.523-0.723-0.714-1.112-1.073c-0.639-0.59-0.525-1.72,0.095-2.33c0.62-0.609,1.584-0.755,2.437-0.586
								c0.853,0.168,3.057-0.103,3.812,0.328c-1.33-1.07-3.801-1.791-4.407-3.387c-0.247-0.652-0.276-1.622,0.397-1.807
								c0.293-0.08,0.599,0.043,0.875,0.169c3.297,1.504,6.25,3.757,8.572,6.539"/>
						</g>
						<path style="fill:#F9BBAA;" d="M381.265,338.604c0,0,14.263-0.553,18.542-1.498c3.961,1.498,5.116,6.872,0.008,8.222
							c-5.108,1.351-19.03,0-19.03,0S381.086,340.497,381.265,338.604z"/>
						<path style="fill:#E4AE23;" d="M399.807,337.106c0,0,2.149,4.136,0.008,8.222c7.743,0,11.939-0.615,15.346-3.822
							c5.54-5.214,7.744-37.365-4.469-42.357c-2.53,8.616-0.916,27.569-2.107,36.202
							C406.727,335.503,399.807,337.106,399.807,337.106z"/>
						<path style="fill:#F5C259;" d="M399.807,337.106c0,0,6.502-1.277,8.777-1.755c0.314-3.443,0.539-19.021,0.595-21.238
							c0.53,3.296,2.345,21.501,0.53,22.16C407.894,336.932,399.807,337.106,399.807,337.106z"/>
					</g>
					<g>
						<path id="XMLID_60_" style="fill:#F27D83;" d="M383.316,274.784c0.074-1.214,0.18-3.282,1.589-3.762
							c0.809-0.275,1.592,0.17,1.659,0.897c0.532,0.445,0.889,1.212,1.027,1.842c0.167,0.761,0.113,1.559,0.032,2.326
							c-0.105,0.995-0.201,2.45-0.618,3.38c-0.459,1.022-1.571,0.654-2.31,0.076C383.28,278.438,383.215,276.427,383.316,274.784z"
							/>
						<path id="XMLID_59_" style="fill:#334873;" d="M386.368,261.622c-0.007-0.15,0.105-0.271,0.235-0.311
							c0.001-0.001,0.002-0.002,0.003-0.003c0.107-0.128,0.285-0.018,0.298,0.119c0.004,0.007,0.011,0.011,0.015,0.019
							c0.864,1.735,0.8,3.716,0.748,5.612c-0.064,2.372-0.368,4.717-0.854,7.038c-0.048,0.228-0.338,0.269-0.492,0.13
							C383.01,271.221,383.856,264.94,386.368,261.622z"/>
						<g>
							<path style="fill:#334873;" d="M420.3,261.704c0.652,1.461,1.184,2.975,1.591,4.522c0.673,2.559,0.905,5.562-0.798,7.586
								c-3.539,4.206-14.784,2.644-13.17-4.177C408.818,265.854,417.34,255.066,420.3,261.704z"/>
							<path style="fill:#334873;" d="M417.067,285.9c-0.647-2.234-1.774-4.328-3.282-6.099c0.66,2.27,0.909,4.941-0.553,6.799
								c0.177-3.199-0.707-6.353-2.077-9.218c-0.701-1.465-2.391-3.162-0.089-3.161c1.547,0,3.598,1.934,4.479,3.059
								C417.738,280.079,417.393,283.095,417.067,285.9z"/>
						</g>
						<g>
							<path id="XMLID_58_" style="fill:#F9BBAA;" d="M410.232,274.82c-0.202,2.606-0.723,5.265-2.026,7.593
								c-1.302,2.326-7.545,6.571-14.552,6.571c-0.002,0-0.004-0.002-0.006-0.002c-0.479-0.12-0.945-0.277-1.386-0.463
								c-4.414-1.863-6.106-6.111-6.583-10.219c-0.293-2.526-0.181-5.142,0.051-7.677c0.143-1.564,0.297-3.589,0.955-5.279
								c0.248-0.856,0.574-1.693,1.01-2.496c1.409-2.596,4.034-4.385,7.001-5.391c3.331-1.129,7.342-0.846,10.3,0.852
								c1.546,0.888,3.113,2.453,3.833,4.179c0.555,0.994,0.889,2.125,1.082,3.296c0.102,0.359,0.195,0.721,0.274,1.09
								c0.429,2.014,0.436,4.147,0.178,6.262C410.36,273.703,410.32,274.269,410.232,274.82z"/>
							<path id="XMLID_57_" style="fill:#F27D83;" d="M387.697,262.848c1.409-2.596,4.034-4.385,7.001-5.391
								c3.331-1.129,7.342-0.846,10.3,0.852c1.546,0.888,3.113,2.453,3.833,4.179c0.555,0.994,0.889,2.125,1.082,3.296
								c0.102,0.359,0.195,0.721,0.274,1.09c0.429,2.014,0.436,4.147,0.178,6.262c-0.004,0.569-0.045,1.135-0.132,1.686
								c-0.039,0.501-0.101,1.001-0.174,1.5c-0.381-0.005-0.672-0.38-0.639-0.73c-1.591-0.199-3.29-1.993-4.417-3.006
								c-0.665-0.598-1.288-1.235-1.888-1.891c0.1,0.46,0.137,0.938-0.209,1.267c-0.137,0.13-0.377,0.182-0.543,0.07
								c-0.039-0.026-0.067-0.056-0.099-0.084c-0.073,0.031-0.151,0.046-0.228,0.034c-3.918-0.607-7.768-3.741-9.681-7.438
								c-1.209,1.792-3.07,3.531-3.834,4.726c-0.177,0.278-0.502,0.257-0.685,0.078c-0.13-0.02-0.261-0.084-0.38-0.205
								c-0.54-0.545-0.968-1.17-1.314-1.84c0.13-0.672,0.303-1.339,0.545-1.96C386.934,264.487,387.261,263.65,387.697,262.848z"/>
						</g>
						<g>
							<path id="XMLID_36_" style="fill:#3D5184;" d="M386.177,260.945c1.272-2.531,4.595-4.441,7.391-4.39
								c0.024,0,0.035,0.017,0.055,0.023c4.916-3.46,12.011-1.575,15.902,2.627c2.301,2.484,3.668,5.342,3.533,8.749
								c-0.119,3.01-0.812,6.107-3.12,8.207c-0.025,0.023-0.052,0.034-0.079,0.047c-0.007,0.041-0.015,0.083-0.021,0.124
								c-0.046,0.279-0.417,0.261-0.549,0.072c-2.303-3.315-5.256-6.084-7.876-9.13c0.612,1.618,1.252,3.223,1.964,4.802
								c0.102,0.226-0.067,0.519-0.339,0.441c-5.329-1.53-9.099-5.769-10.143-10.916c-0.342,0.882-0.913,1.689-1.421,2.523
								c-1.051,1.727-2.565,3.613-2.986,5.616c-0.042,0.198-0.301,0.294-0.467,0.19c-0.602-0.378-1.04-0.902-1.349-1.502
								c-0.552-0.536-0.764-1.541-0.915-2.22c-0.128-0.573-0.194-1.143-0.199-1.714
								C385.445,263.282,385.621,262.052,386.177,260.945z"/>
							<path style="fill:#4C6293;" d="M387.16,269.165c0.186,0.221,0.397,0.424,0.636,0.602l0,0
								c-0.703-2.394-0.936-4.999,0.205-7.297c1.267-2.552,3.183-3.092,5.669-3.825c1.185-0.349,1.267-0.597,2.218-1.485
								c0.992-0.928,2.105-1.792,3.271-2.363c-1.229,0.04-2.442,0.264-3.587,0.724c-0.012,0.005-0.023,0.01-0.035,0.015
								c-0.311,0.127-0.616,0.271-0.916,0.432c-0.025,0.013-0.05,0.025-0.075,0.038c-0.315,0.172-0.623,0.362-0.923,0.573
								c-0.02-0.006-0.03-0.023-0.055-0.023c-2.796-0.052-6.119,1.859-7.391,4.39c-0.557,1.107-0.732,2.337-0.62,3.55
								c0.006,0.571,0.071,1.141,0.199,1.714c0.151,0.679,0.363,1.684,0.915,2.22c0.131,0.254,0.289,0.492,0.47,0.712
								C387.148,269.149,387.154,269.157,387.16,269.165z"/>
						</g>
						<g>
							<path id="XMLID_30_" style="fill:#853D60;" d="M396.775,273.331c0.091-0.02,0.19-0.014,0.279,0.013
								c0.737,0.227,0.835,1.303,0.772,1.932c-0.029,0.288-0.107,0.602-0.347,0.765c-0.191,0.13-0.462,0.126-0.65-0.009
								c-0.184-0.132-0.271-0.36-0.33-0.578c-0.136-0.503-0.175-1.031-0.116-1.548c0.019-0.167,0.055-0.345,0.175-0.463
								C396.619,273.385,396.695,273.348,396.775,273.331z"/>
							<path id="XMLID_29_" style="fill:#853D60;" d="M387.938,273.331c0.091-0.02,0.19-0.014,0.279,0.013
								c0.737,0.227,0.836,1.303,0.772,1.932c-0.029,0.288-0.107,0.602-0.347,0.765c-0.191,0.13-0.462,0.126-0.65-0.009
								c-0.184-0.132-0.271-0.36-0.33-0.578c-0.136-0.503-0.175-1.031-0.116-1.548c0.019-0.167,0.055-0.345,0.175-0.463
								C387.782,273.385,387.857,273.348,387.938,273.331z"/>
							<path id="XMLID_28_" style="fill:#853D60;" d="M395.777,271.612c0.134-0.616,0.861-0.898,1.434-0.904
								c0.852-0.008,1.532,0.567,2.102,1.135c0.159,0.158-0.079,0.39-0.244,0.244c-0.467-0.413-1.002-0.853-1.651-0.9
								c-0.586-0.042-0.881,0.253-1.237,0.66C396.012,272.041,395.729,271.832,395.777,271.612z"/>
							<path id="XMLID_27_" style="fill:#853D60;" d="M386.649,270.647c0.578-1.182,2.364-0.415,2.846,0.454
								c0.129,0.233-0.215,0.432-0.356,0.208c-0.353-0.562-1.573-1.182-1.974-0.361
								C386.996,271.293,386.481,270.991,386.649,270.647z"/>
							<path id="XMLID_26_" style="fill:#853D60;" d="M388.795,278.562c1.49-0.655,2.588-1.54,2.468-3.365
								c-0.069-1.046-0.292-2.156-0.748-3.095c-0.078-0.16,0.171-0.255,0.253-0.103c0.696,1.286,1.195,3.301,0.721,4.743
								c-0.167,0.508-0.459,0.911-0.846,1.275c-0.234,0.22-1.227,0.811-1.227,0.811c0.091,0.615,0.424,1.065,0.998,1.349
								c0.31,0.23-0.081,0.722-0.371,0.468c-0.59-0.518-1.024-1.049-1.388-1.748C388.588,278.772,388.677,278.614,388.795,278.562z"
								/>
							<g>
								<path style="fill:#853D60;" d="M391.674,281.936c0.159,0,5.126-2.166,5.937-2.792c0,0,1.439,4.196-1.464,5.198
									C393.244,285.344,391.674,281.936,391.674,281.936z"/>
								<path style="fill:#ED6B9A;" d="M396.147,284.342c1.891-0.652,1.938-2.655,1.742-3.976c-0.957,0.263-1.877,0.646-2.67,1.236
									c-0.81,0.604-1.471,1.44-1.816,2.381C394.113,284.458,395.03,284.728,396.147,284.342z"/>
							</g>
						</g>
						<g>
							<path id="XMLID_35_" style="fill:#F9BBAA;" d="M408.615,275.779c0.287-0.467,0.647-0.877,1.072-1.225
								c0.762-0.902,2.004-0.993,2.907-0.159c1.121,1.035,0.999,2.741,0.61,4.081c-0.403,1.387-1.203,3.22-2.656,3.778
								c-1.146,0.441-2.237-0.074-2.696-1.159C406.968,279.56,407.501,277.325,408.615,275.779z"/>
							<path id="XMLID_34_" style="fill:#F27D83;" d="M410.343,276.641c0.502-0.449,1.47-0.874,1.749,0.015
								c0.024,0.077-0.096,0.12-0.131,0.049c-0.567-1.155-1.975,0.854-2.171,1.242c-0.06,0.119-0.113,0.24-0.162,0.362
								c0.334-0.031,0.66,0.04,0.957,0.221c0.302,0.184,0.706,0.563,0.68,0.945c-0.009,0.122-0.16,0.18-0.245,0.09
								c-0.099-0.104-0.137-0.231-0.217-0.35c-0.105-0.155-0.249-0.29-0.406-0.392c-0.259-0.168-0.564-0.247-0.87-0.247
								c-0.171,0.486-0.289,0.989-0.438,1.484c-0.057,0.191-0.32,0.092-0.286-0.092
								C409.021,278.783,409.412,277.474,410.343,276.641z"/>
						</g>
					</g>
				</g>
			</g>
		</g>
	</g>
</g>
</svg>
