<?xml version="1.0"?>
<svg version="1.1" xmlns="http://www.w3.org/2000/svg" width="701px" height="200px" style="border: dashed 2px #aaa"><path fill="#1e5882" d="M69.32,117.36c0,5.096-1.064,8.96-3.92,11.2c-1.848,1.456-4.536,2.24-8.176,2.24c-1.008,0-2.8-0.168-4.032-0.392c-0.672-0.112-0.896-0.448-0.896-0.896c0-0.168,0-0.336,0.056-0.56l0.56-3.136c0.112-0.504,0.28-0.896,0.952-0.896c0.112,0,0.224,0.056,0.392,0.056c1.008,0.168,2.128,0.336,2.968,0.336c1.456,0,2.968-0.504,3.752-1.512c0.784-1.064,1.176-2.8,1.176-5.208l0-22.4l-6.328,0c-0.896,0-1.176-0.56-1.176-1.232l0-2.296c0-0.784,0.392-1.176,1.176-1.176l12.152,0c0.84,0,1.344,0.504,1.344,1.288l0,24.584z M105.692,116.632c0,8.064-4.928,14.28-13.664,14.28c-9.128,0-13.328-6.16-13.328-14.336c0-8.064,4.928-14.224,13.664-14.224c9.128,0,13.328,6.048,13.328,14.28z M98.692,116.632c0-4.592-1.456-8.96-6.384-8.96c-4.984,0-6.608,4.312-6.608,8.792c0,4.592,1.4,9.128,6.384,9.128c4.928,0,6.608-4.368,6.608-8.96z M140.048,116.688c0,7.728-3.976,14.224-12.32,14.224c-2.52,0-5.544-1.456-7.112-3.192l-0.224,1.848c-0.056,0.504-0.504,0.672-1.232,0.672l-3.36,0c-0.952,0-1.344-0.448-1.344-1.4l0-36.512c0-0.896,0.224-1.4,1.12-1.512l4.144-0.56c0.224-0.056,0.392-0.056,0.56-0.056c0.56,0,0.952,0.224,0.952,1.12l0,13.776c1.792-1.568,4.48-2.744,7.392-2.744c3.08,0,5.376,1.008,7.168,2.632c2.968,2.632,4.256,7,4.256,11.704z M133.048,116.744c0-4.536-1.4-8.68-6.048-8.68c-2.072,0-4.256,1.12-5.768,2.52l0,11.984c1.344,1.512,3.416,2.744,5.488,2.744c4.872,0,6.328-4.2,6.328-8.568z M166.956,122.232c0,5.88-5.096,8.68-10.808,8.68c-2.912,0-6.104-0.84-8.624-1.96c-0.504-0.224-0.672-0.56-0.672-0.896c0-0.168,0.056-0.336,0.112-0.504l0.896-2.856c0.168-0.56,0.448-0.784,0.784-0.784c0.168,0,0.336,0,0.616,0.112c2.464,1.008,5.096,1.736,7.056,1.736c2.464,0,4.144-1.12,4.144-2.968c0-1.568-1.064-2.408-3.36-3.304l-4.424-1.68c-3.192-1.176-5.768-3.64-5.768-7.448c0-5.488,5.152-8.008,10.136-8.008c2.688,0,5.32,0.448,8.12,1.68c0.448,0.224,0.672,0.448,0.672,0.784c0,0.168-0.056,0.336-0.112,0.56l-0.952,3.024c-0.112,0.392-0.392,0.616-0.784,0.616c-0.168,0-0.392-0.056-0.56-0.112c-1.848-0.728-4.256-1.344-6.048-1.344c-2.352,0-3.528,1.288-3.528,2.576c0,1.232,0.616,2.016,2.744,2.856l5.04,2.072c2.968,1.232,5.32,3.528,5.32,7.168z M192.128,128.56c0,0.56-0.28,0.84-0.84,1.064c-1.736,0.728-4.032,1.288-6.272,1.288c-2.856,0-5.32-0.728-6.72-2.352c-1.736-1.96-1.792-4.256-1.792-8.344l0-12.488l-2.632,0c-1.064,0-1.232-0.224-1.232-1.4l0-2.128c0-0.672,0.336-1.12,1.008-1.12l2.856,0l0-6.104c0-0.952,0.504-1.232,1.4-1.344l4.032-0.504l0.28,0c0.728,0,1.064,0.392,1.064,1.232l0,6.72l6.328,0c0.672,0,1.064,0.224,1.064,0.952l0,2.632c0,0.672-0.448,1.064-1.12,1.064l-6.272,0l0,12.824c0,1.68,0.112,2.912,0.728,3.808c0.504,0.728,1.288,1.176,2.632,1.176c1.4,0,2.576-0.336,3.584-0.672c0.224-0.056,0.392-0.112,0.56-0.112c0.392,0,0.616,0.224,0.728,0.672l0.56,2.8c0.056,0.168,0.056,0.224,0.056,0.336z M223.572,116.576c0,1.344-0.448,1.624-1.848,1.624l-16.408,0c0.448,4.312,3.584,7.28,8.008,7.28c2.352,0,4.816-0.56,6.888-1.344c0.224-0.056,0.392-0.168,0.616-0.168c0.392,0,0.672,0.224,0.784,0.672l0.784,2.856c0.056,0.28,0.112,0.504,0.112,0.672c0,0.392-0.224,0.672-0.896,0.952c-2.744,1.232-6.496,1.792-9.408,1.792c-8.792,0-14-5.6-14-14.336c0-8.4,5.544-14.224,13.888-14.224c3.416,0,6.216,1.288,8.176,3.36c2.576,2.688,3.304,6.216,3.304,10.024l0,0.84z M216.908,113.776l0-0.616c-0.112-2.912-1.792-5.6-5.208-5.6c-3.64,0-5.824,2.912-6.272,6.216l11.48,0z M247.344,103.304c0,0.168,0,0.336-0.056,0.504l-0.616,3.976c-0.056,0.504-0.336,0.728-0.784,0.728l-0.224,0c-0.448-0.112-1.008-0.168-1.512-0.168c-1.904,0-3.976,1.008-5.376,2.688l0,17.808c0,0.896-0.392,1.4-1.344,1.4l-4.088,0c-0.896,0-1.344-0.448-1.344-1.4l0-17.472l0-6.888c0-1.12,0.56-1.4,1.4-1.4l3.584,0c0.896,0,1.4,0.28,1.4,1.064l0.056,1.792c1.736-2.184,3.64-3.584,6.776-3.584c0.448,0,1.064,0.112,1.568,0.224c0.392,0.112,0.56,0.28,0.56,0.728z"/><path fill="#" d=""/></svg>
